<?xml version="1.0" standalone="no"?><!DOCTYPE svg PUBLIC "-//W3C//DTD SVG 1.1//EN" "http://www.w3.org/Graphics/SVG/1.1/DTD/svg11.dtd"><svg t="1523534042707" class="icon" style="" viewBox="0 0 1024 1024" version="1.1" xmlns="http://www.w3.org/2000/svg" p-id="6134" xmlns:xlink="http://www.w3.org/1999/xlink" width="200" height="200"><defs><style type="text/css"></style></defs><path d="M694.857143 182.857143q0 14.848-10.825143 25.746286t-25.746286 10.825143l-73.142857 0 0 585.142857 73.142857 0q14.848 0 25.746286 10.825143t10.825143 25.746286-10.825143 25.746286l-146.285714 146.285714q-10.825143 10.825143-25.746286 10.825143t-25.746286-10.825143l-146.285714-146.285714q-10.825143-10.825143-10.825143-25.746286t10.825143-25.746286 25.746286-10.825143l73.142857 0 0-585.142857-73.142857 0q-14.848 0-25.746286-10.825143t-10.825143-25.746286 10.825143-25.746286l146.285714-146.285714q10.825143-10.825143 25.746286-10.825143t25.746286 10.825143l146.285714 146.285714q10.825143 10.825143 10.825143 25.746286z" p-id="6135"></path></svg>