<?xml version="1.0" standalone="no"?><!DOCTYPE svg PUBLIC "-//W3C//DTD SVG 1.1//EN"
        "http://www.w3.org/Graphics/SVG/1.1/DTD/svg11.dtd">
<svg t="1523722810069" class="icon" style="" viewBox="0 0 1025 1024" version="1.1" xmlns="http://www.w3.org/2000/svg"
      xmlns:xlink="http://www.w3.org/1999/xlink" width="200.1953125" height="200">
    <defs>
        <style type="text/css"></style>
    </defs>
    <path d="M789.333333 1024 0 1024 0 85.333333l618.666667 0c11.776 0 21.333333 9.557333 21.333333 21.333333s-9.557333 21.333333-21.333333 21.333333L42.666667 128l0 853.333333 704 0L746.666667 512c0-11.776 9.557333-21.333333 21.333333-21.333333s21.333333 9.557333 21.333333 21.333333L789.333333 1024z"
    ></path>
    <path d="M469.333333 362.666667"></path>
    <path d="M461.589333 583.744c-5.546667 0-11.008-2.154667-15.104-6.250667-6.485333-6.485333-8.106667-16.405333-4.010667-24.618667l60.330667-120.682667c1.024-2.048 2.368-3.925333 4.010667-5.546667L914.133333 19.349333C926.784 6.677333 942.208 0 958.698667 0c25.877333 0 50.218667 16.725333 60.522667 41.6 9.834667 23.765333 4.394667 49.28-14.570667 68.245333L597.354667 517.141333c-1.621333 1.621333-3.498667 2.965333-5.546667 4.010667l-120.682667 60.352C468.096 583.018667 464.832 583.744 461.589333 583.744zM539.456 454.357333l-30.165333 60.352 60.352-30.186667L974.485333 79.68c6.72-6.72 8.512-14.037333 5.333333-21.76C976.192 49.237333 967.125333 42.666667 958.698667 42.666667c-5.013333 0-9.856 2.304-14.4 6.848L539.456 454.357333z"
    ></path>
    <path d="M929.216 176.448c-5.461333 0-10.922667-2.090667-15.104-6.250667l-60.330667-60.352c-8.32-8.341333-8.32-21.845333 0-30.186667 8.341333-8.32 21.845333-8.32 30.186667 0l60.330667 60.352c8.32 8.341333 8.32 21.845333 0 30.186667C940.138667 174.378667 934.677333 176.448 929.216 176.448z"
    ></path>
</svg>