<?xml version="1.0" standalone="no"?><!DOCTYPE svg PUBLIC "-//W3C//DTD SVG 1.1//EN" "http://www.w3.org/Graphics/SVG/1.1/DTD/svg11.dtd"><svg t="1523703415131" class="icon" style="" viewBox="0 0 1024 1024" version="1.1" xmlns="http://www.w3.org/2000/svg" p-id="1158" xmlns:xlink="http://www.w3.org/1999/xlink" width="200" height="200"><defs><style type="text/css"></style></defs><path d="M512 65C265.146 65 65 265.146 65 512c0 246.854 200.146 447 447 447 246.854 0 447-200.146 447-447C959 265.146 758.854 65 512 65zM512 929.199C281.952 929.199 94.8 742.048 94.8 512S281.952 94.8 512 94.8 929.2 281.952 929.2 512 742.048 929.199 512 929.199z" p-id="1159"></path><path d="M497.1 411.425l29.8 0 0 342.7-29.8 0 0-342.7Z" p-id="1160"></path><path d="M512 322.025m-29.8 0a29.8 29.8 0 1 0 59.6 0 29.8 29.8 0 1 0-59.6 0Z" p-id="1161"></path></svg>