<?xml version="1.0" standalone="no"?><!DOCTYPE svg PUBLIC "-//W3C//DTD SVG 1.1//EN" "http://www.w3.org/Graphics/SVG/1.1/DTD/svg11.dtd"><svg t="1523529699256" class="icon" style="" viewBox="0 0 1024 1024" version="1.1" xmlns="http://www.w3.org/2000/svg" p-id="1357" xmlns:xlink="http://www.w3.org/1999/xlink" width="200" height="200"><defs><style type="text/css"></style></defs><path d="M521.728 71.168c-243.2 0-440.32 197.12-440.32 440.32s197.12 440.32 440.32 440.32 440.32-197.12 440.32-440.32S764.928 71.168 521.728 71.168zM264.9088 734.6176c-21.2992 0-38.6048-17.3056-38.6048-38.5024 0-21.2992 17.2032-38.6048 38.6048-38.6048 21.2992 0 38.6048 17.3056 38.5024 38.6048C303.4112 717.312 286.1056 734.6176 264.9088 734.6176zM264.9088 559.9232c-21.2992 0-38.6048-17.2032-38.6048-38.6048 0-21.2992 17.2032-38.5024 38.6048-38.5024 21.2992 0 38.6048 17.3056 38.5024 38.5024C303.4112 542.6176 286.1056 559.9232 264.9088 559.9232zM264.9088 366.08c-21.2992 0-38.6048-17.2032-38.6048-38.5024 0-21.2992 17.2032-38.6048 38.6048-38.6048 21.2992 0 38.6048 17.3056 38.5024 38.6048C303.4112 348.7744 286.1056 366.08 264.9088 366.08zM774.656 733.7984 390.8608 733.7984c-16.0768 0-28.9792-22.6304-28.9792-41.2672s13.0048-35.6352 28.9792-35.6352l383.7952 0c15.9744 0 28.9792 17.1008 28.9792 35.6352S790.7328 733.7984 774.656 733.7984zM774.656 558.8992 390.8608 558.8992c-16.0768 0-28.9792-20.48-28.9792-39.1168 0-18.6368 13.0048-37.6832 28.9792-37.6832l383.7952 0c15.9744 0 28.9792 19.0464 28.9792 37.6832C803.6352 538.4192 790.7328 558.8992 774.656 558.8992zM774.656 365.3632 390.8608 365.3632c-16.0768 0-28.9792-18.2272-28.9792-39.2192s13.0048-37.4784 28.9792-37.4784l383.7952 0c15.9744 0 28.9792 16.384 28.9792 37.4784S790.7328 365.3632 774.656 365.3632z" p-id="1358"></path></svg>