<svg id="svg" version="1.1" width="400" height="80.71216617210682" viewBox="0 0 400 80.71216617210682" xmlns="http://www.w3.org/2000/svg" xmlns:xlink="http://www.w3.org/1999/xlink" ><g id="svgg"><path id="path0" d="M293.833 2.267 C 293.833 2.453,294.501 3.055,294.599 2.957 C 294.635 2.920,294.478 2.714,294.249 2.499 C 294.021 2.284,293.833 2.180,293.833 2.267 M187.500 6.333 C 187.304 6.608,187.174 6.833,187.211 6.833 C 187.248 6.833,187.479 6.608,187.724 6.333 C 187.969 6.058,188.099 5.833,188.013 5.833 C 187.927 5.833,187.696 6.058,187.500 6.333 M25.855 7.405 C 26.070 7.628,26.277 7.779,26.316 7.740 C 26.415 7.640,25.816 7.000,25.623 7.000 C 25.536 7.000,25.641 7.182,25.855 7.405 M187.500 9.167 C 187.696 9.442,187.940 9.667,188.043 9.667 C 188.145 9.667,188.013 9.442,187.750 9.167 C 187.487 8.892,187.242 8.667,187.207 8.667 C 187.173 8.667,187.304 8.892,187.500 9.167 M29.362 20.396 C 29.800 20.816,29.885 20.829,29.742 20.457 C 29.688 20.315,29.493 20.160,29.309 20.112 C 29.001 20.031,29.005 20.054,29.362 20.396 M386.653 22.727 C 386.875 22.968,387.089 23.133,387.128 23.094 C 387.248 22.974,387.002 22.679,386.616 22.478 C 386.267 22.297,386.269 22.309,386.653 22.727 M202.658 23.907 C 203.133 24.413,203.239 24.447,203.010 24.020 C 202.918 23.847,202.711 23.655,202.550 23.594 C 202.332 23.510,202.360 23.590,202.658 23.907 M102.163 25.087 C 101.841 25.475,102.071 25.549,102.416 25.168 C 102.582 24.984,102.641 24.833,102.546 24.833 C 102.452 24.833,102.279 24.948,102.163 25.087 M222.000 25.167 C 221.902 25.350,221.881 25.500,221.954 25.500 C 222.027 25.500,222.180 25.350,222.295 25.167 C 222.410 24.982,222.430 24.833,222.341 24.833 C 222.251 24.833,222.098 24.983,222.000 25.167 M396.166 29.916 C 396.381 30.145,396.594 30.295,396.639 30.250 C 396.749 30.140,396.158 29.500,395.945 29.500 C 395.852 29.500,395.951 29.687,396.166 29.916 M233.500 34.305 C 233.123 34.673,233.118 34.693,233.449 34.521 C 233.650 34.417,233.864 34.252,233.924 34.155 C 234.129 33.823,233.917 33.898,233.500 34.305 M216.097 34.607 C 215.951 34.987,216.033 34.997,216.375 34.639 C 216.597 34.406,216.611 34.333,216.434 34.333 C 216.307 34.333,216.155 34.457,216.097 34.607 M366.487 35.439 C 366.116 35.843,366.112 35.864,366.439 35.694 C 366.634 35.592,366.838 35.395,366.892 35.255 C 367.028 34.899,366.952 34.934,366.487 35.439 M335.500 36.872 C 335.637 36.997,335.858 37.208,335.990 37.341 C 336.177 37.530,336.174 37.494,335.975 37.176 C 335.836 36.952,335.615 36.741,335.486 36.707 C 335.295 36.657,335.298 36.689,335.500 36.872 M364.154 37.773 C 363.932 38.015,363.856 38.179,363.986 38.139 C 364.205 38.070,364.797 37.333,364.633 37.333 C 364.592 37.333,364.376 37.531,364.154 37.773 M34.154 38.227 C 34.376 38.469,34.592 38.667,34.633 38.667 C 34.797 38.667,34.205 37.930,33.986 37.861 C 33.856 37.821,33.932 37.985,34.154 38.227 M345.571 39.238 C 345.395 39.367,345.288 39.510,345.334 39.556 C 345.380 39.602,345.562 39.534,345.738 39.405 C 345.915 39.276,346.021 39.133,345.976 39.087 C 345.930 39.041,345.748 39.109,345.571 39.238 M91.666 41.555 C 91.366 41.790,90.927 42.333,91.039 42.333 C 91.171 42.333,92.042 41.486,91.977 41.421 C 91.943 41.388,91.804 41.448,91.666 41.555 M397.321 42.606 C 396.949 43.010,396.945 43.030,397.272 42.861 C 397.468 42.759,397.671 42.561,397.725 42.421 C 397.862 42.066,397.785 42.101,397.321 42.606 M39.540 42.611 C 39.424 42.658,39.248 42.848,39.148 43.035 C 38.968 43.371,38.971 43.371,39.395 43.062 C 39.734 42.815,39.999 42.448,39.792 42.513 C 39.769 42.520,39.655 42.564,39.540 42.611 M132.833 49.290 C 132.833 49.483,133.473 50.082,133.573 49.983 C 133.612 49.944,133.461 49.736,133.239 49.522 C 133.016 49.307,132.833 49.203,132.833 49.290 M149.454 53.017 C 148.916 53.630,148.856 53.848,149.349 53.403 C 149.668 53.114,150.083 52.500,149.960 52.500 C 149.931 52.500,149.703 52.733,149.454 53.017 M216.185 53.519 C 215.731 54.006,215.863 54.137,216.333 53.667 C 216.532 53.468,216.658 53.269,216.614 53.225 C 216.570 53.181,216.377 53.313,216.185 53.519 M320.500 54.833 C 320.402 55.017,320.381 55.167,320.454 55.167 C 320.527 55.167,320.680 55.017,320.795 54.833 C 320.910 54.649,320.930 54.500,320.841 54.500 C 320.751 54.500,320.598 54.650,320.500 54.833 M296.333 55.856 C 296.471 55.981,296.691 56.196,296.823 56.333 C 297.009 56.527,297.006 56.492,296.809 56.176 C 296.669 55.952,296.449 55.737,296.319 55.698 C 296.129 55.642,296.132 55.673,296.333 55.856 M336.821 56.773 C 336.598 57.015,336.523 57.179,336.652 57.139 C 336.872 57.070,337.464 56.333,337.299 56.333 C 337.258 56.333,337.043 56.531,336.821 56.773 M148.154 60.273 C 147.782 60.677,147.778 60.697,148.105 60.527 C 148.301 60.426,148.505 60.228,148.558 60.088 C 148.695 59.733,148.619 59.767,148.154 60.273 M130.873 60.444 C 130.627 60.543,130.260 61.169,130.452 61.161 C 130.524 61.159,130.718 60.971,130.883 60.745 C 131.047 60.518,131.160 60.339,131.133 60.346 C 131.106 60.354,130.989 60.398,130.873 60.444 M109.833 61.582 C 109.833 61.688,110.473 62.333,110.578 62.333 C 110.621 62.333,110.620 62.238,110.575 62.121 C 110.492 61.906,109.833 61.427,109.833 61.582 M92.500 62.454 C 92.500 62.663,92.976 63.079,93.088 62.967 C 93.133 62.923,93.018 62.751,92.834 62.584 C 92.650 62.418,92.500 62.359,92.500 62.454 M346.532 64.819 C 346.570 64.949,346.785 65.169,347.009 65.309 C 347.325 65.506,347.360 65.509,347.167 65.323 C 347.029 65.191,346.814 64.971,346.689 64.833 C 346.506 64.632,346.475 64.629,346.532 64.819 M379.833 65.500 C 379.735 65.683,379.715 65.833,379.787 65.833 C 379.860 65.833,380.013 65.683,380.128 65.500 C 380.243 65.315,380.264 65.167,380.174 65.167 C 380.085 65.167,379.931 65.317,379.833 65.500 M145.695 66.270 C 145.339 66.612,145.334 66.635,145.642 66.555 C 145.826 66.507,146.021 66.351,146.076 66.210 C 146.219 65.837,146.133 65.851,145.695 66.270 M115.843 66.542 C 115.975 66.656,116.177 66.859,116.292 66.992 C 116.415 67.134,116.500 67.156,116.500 67.045 C 116.500 66.803,116.032 66.333,115.790 66.333 C 115.680 66.333,115.703 66.420,115.843 66.542 M27.204 73.194 C 27.239 73.301,27.452 73.504,27.676 73.645 L 28.083 73.901 27.679 73.451 C 27.243 72.964,27.101 72.888,27.204 73.194 M59.275 75.588 C 59.329 75.728,59.523 75.923,59.707 76.021 C 60.037 76.198,60.037 76.195,59.729 75.772 C 59.383 75.298,59.123 75.192,59.275 75.588 M103.169 75.426 C 103.173 75.688,103.398 75.934,103.750 76.064 C 104.037 76.169,104.049 76.156,103.833 75.968 C 103.696 75.848,103.490 75.642,103.375 75.510 C 103.260 75.378,103.168 75.340,103.169 75.426 M29.645 77.949 C 29.846 78.336,30.141 78.581,30.260 78.462 C 30.300 78.422,30.135 78.209,29.893 77.987 C 29.475 77.602,29.464 77.600,29.645 77.949 M189.833 77.993 C 189.833 78.082,189.983 78.235,190.167 78.333 C 190.350 78.431,190.500 78.452,190.500 78.379 C 190.500 78.306,190.350 78.153,190.167 78.039 C 189.982 77.923,189.833 77.903,189.833 77.993 M162.500 78.957 C 162.500 79.149,163.140 79.749,163.240 79.649 C 163.279 79.610,163.128 79.403,162.905 79.188 C 162.682 78.974,162.500 78.870,162.500 78.957 M170.667 79.280 C 170.438 79.522,170.356 79.685,170.486 79.643 C 170.694 79.574,171.303 78.829,171.145 78.836 C 171.111 78.838,170.896 79.037,170.667 79.280 " stroke="none" fill="#000000" fill-rule="evenodd"></path><path id="path1" d="M192.500 0.333 C 192.500 0.517,192.575 0.667,192.667 0.667 C 192.758 0.667,192.833 0.517,192.833 0.333 C 192.833 0.150,192.758 0.000,192.667 0.000 C 192.575 0.000,192.500 0.150,192.500 0.333 M49.958 4.680 C 49.627 4.873,49.569 5.167,49.861 5.167 C 49.968 5.167,50.007 5.118,49.947 5.058 C 49.887 4.998,49.969 4.851,50.128 4.730 C 50.471 4.470,50.371 4.440,49.958 4.680 M0.000 6.333 C 0.000 6.425,0.150 6.500,0.333 6.500 C 0.517 6.500,0.667 6.425,0.667 6.333 C 0.667 6.242,0.517 6.167,0.333 6.167 C 0.150 6.167,0.000 6.242,0.000 6.333 M187.338 6.911 C 187.226 7.045,187.164 7.241,187.199 7.347 C 187.234 7.452,187.352 7.342,187.461 7.102 C 187.684 6.614,187.640 6.547,187.338 6.911 M122.036 19.843 C 122.193 19.935,122.437 20.174,122.577 20.375 C 122.718 20.576,122.833 20.649,122.833 20.537 C 122.833 20.269,122.223 19.665,121.958 19.672 C 121.840 19.675,121.873 19.749,122.036 19.843 M117.549 20.253 C 117.391 20.423,117.399 20.490,117.585 20.561 C 117.867 20.669,118.025 20.475,117.864 20.219 C 117.784 20.092,117.690 20.102,117.549 20.253 M29.000 20.583 C 29.000 20.721,29.122 20.833,29.270 20.833 C 29.492 20.833,29.503 20.788,29.333 20.583 C 29.219 20.446,29.098 20.333,29.063 20.333 C 29.028 20.333,29.000 20.446,29.000 20.583 M254.833 21.361 C 254.833 21.468,254.882 21.507,254.942 21.447 C 255.002 21.387,255.156 21.469,255.284 21.628 C 255.494 21.887,255.500 21.878,255.337 21.542 C 255.144 21.145,254.833 21.033,254.833 21.361 M359.713 22.542 C 359.347 23.014,359.255 23.262,359.525 23.043 C 359.666 22.929,359.814 22.870,359.855 22.911 C 359.897 22.952,359.941 22.839,359.955 22.660 C 359.983 22.279,359.934 22.255,359.713 22.542 M357.240 23.578 C 357.062 23.713,356.992 23.823,357.083 23.823 C 357.175 23.823,357.396 23.713,357.574 23.578 C 357.751 23.443,357.822 23.333,357.730 23.333 C 357.639 23.333,357.418 23.443,357.240 23.578 M30.478 24.890 C 30.580 25.013,30.630 25.148,30.589 25.189 C 30.548 25.230,30.666 25.275,30.851 25.289 C 31.049 25.304,31.158 25.232,31.115 25.115 C 31.075 25.006,30.957 24.935,30.854 24.958 C 30.751 24.981,30.667 24.925,30.667 24.833 C 30.667 24.742,30.582 24.667,30.480 24.667 C 30.342 24.667,30.342 24.726,30.478 24.890 M220.643 25.986 C 220.427 26.161,220.287 26.334,220.333 26.370 C 220.379 26.405,220.597 26.262,220.818 26.051 C 221.304 25.586,221.190 25.543,220.643 25.986 M392.571 26.123 C 392.571 26.302,392.697 26.444,392.869 26.457 C 393.033 26.469,393.167 26.396,393.167 26.295 C 393.167 26.194,393.118 26.160,393.058 26.220 C 392.998 26.279,392.865 26.212,392.761 26.070 C 392.595 25.843,392.571 25.849,392.571 26.123 M352.596 27.355 C 352.419 27.526,352.354 27.667,352.450 27.667 C 352.643 27.667,353.087 27.194,352.982 27.101 C 352.946 27.069,352.772 27.183,352.596 27.355 M351.667 28.343 C 351.667 28.440,351.580 28.466,351.474 28.401 C 351.361 28.330,351.327 28.355,351.392 28.460 C 351.453 28.558,351.408 28.674,351.293 28.719 C 351.178 28.763,351.237 28.792,351.425 28.783 C 351.704 28.770,352.011 28.167,351.740 28.167 C 351.700 28.167,351.667 28.246,351.667 28.343 M144.500 31.796 C 144.500 31.876,144.688 32.118,144.917 32.333 C 145.146 32.549,145.333 32.685,145.333 32.637 C 145.333 32.588,145.146 32.346,144.917 32.099 C 144.688 31.852,144.500 31.715,144.500 31.796 M242.708 32.619 C 242.960 32.658,243.373 32.658,243.625 32.619 C 243.877 32.581,243.671 32.550,243.167 32.550 C 242.662 32.550,242.456 32.581,242.708 32.619 M233.167 34.104 C 233.167 34.325,233.212 34.337,233.417 34.167 C 233.554 34.053,233.667 33.931,233.667 33.896 C 233.667 33.862,233.554 33.833,233.417 33.833 C 233.279 33.833,233.167 33.955,233.167 34.104 M303.894 34.249 C 303.841 34.386,303.731 34.457,303.649 34.406 C 303.567 34.355,303.500 34.393,303.500 34.490 C 303.500 34.785,303.810 34.688,304.000 34.333 C 304.098 34.150,304.136 34.000,304.084 34.000 C 304.032 34.000,303.947 34.112,303.894 34.249 M215.731 35.422 C 215.579 35.654,215.485 35.874,215.522 35.911 C 215.559 35.948,215.716 35.758,215.870 35.489 C 216.214 34.890,216.112 34.840,215.731 35.422 M250.333 36.333 C 250.152 36.451,250.143 36.496,250.302 36.497 C 250.421 36.499,250.477 36.570,250.424 36.655 C 250.371 36.740,250.389 36.848,250.464 36.894 C 250.539 36.941,250.600 36.796,250.600 36.573 C 250.600 36.349,250.596 36.168,250.592 36.169 C 250.587 36.171,250.471 36.244,250.333 36.333 M111.313 36.422 C 111.301 36.465,111.281 36.556,111.268 36.625 C 111.255 36.694,111.181 36.852,111.102 36.976 C 111.009 37.122,111.112 37.101,111.396 36.915 C 111.637 36.757,111.833 36.607,111.833 36.582 C 111.833 36.496,111.334 36.343,111.313 36.422 M335.333 37.250 C 335.333 37.387,335.455 37.500,335.604 37.500 C 335.825 37.500,335.837 37.455,335.667 37.250 C 335.553 37.112,335.431 37.000,335.396 37.000 C 335.362 37.000,335.333 37.112,335.333 37.250 M229.883 38.075 C 229.875 38.263,229.904 38.322,229.948 38.207 C 229.992 38.092,230.109 38.047,230.207 38.108 C 230.307 38.170,230.337 38.140,230.275 38.040 C 230.214 37.942,230.259 37.826,230.374 37.781 C 230.489 37.737,230.429 37.708,230.241 37.717 C 230.018 37.727,229.894 37.852,229.883 38.075 M215.833 38.083 C 215.947 38.221,216.116 38.333,216.207 38.333 C 216.300 38.333,216.282 38.223,216.167 38.083 C 216.053 37.946,215.884 37.833,215.793 37.833 C 215.700 37.833,215.718 37.944,215.833 38.083 M384.333 39.894 C 384.333 40.053,384.892 40.667,385.037 40.667 C 385.108 40.667,385.167 40.587,385.167 40.490 C 385.167 40.393,385.079 40.368,384.972 40.434 C 384.836 40.518,384.813 40.459,384.897 40.241 C 384.963 40.068,384.964 39.980,384.899 40.045 C 384.834 40.110,384.680 40.080,384.557 39.978 C 384.434 39.876,384.333 39.838,384.333 39.894 M35.378 42.780 C 35.391 42.980,35.457 43.110,35.524 43.068 C 35.591 43.027,35.724 43.126,35.818 43.288 C 35.913 43.451,35.992 43.498,35.995 43.393 C 35.998 43.289,35.855 43.027,35.677 42.810 C 35.355 42.419,35.354 42.419,35.378 42.780 M337.177 43.250 C 337.177 43.342,337.287 43.562,337.422 43.740 C 337.557 43.918,337.667 43.989,337.667 43.897 C 337.667 43.805,337.557 43.585,337.422 43.407 C 337.287 43.229,337.177 43.158,337.177 43.250 M107.745 43.842 C 107.586 44.098,107.803 44.263,108.017 44.049 C 108.137 43.930,108.140 43.836,108.026 43.766 C 107.933 43.708,107.806 43.742,107.745 43.842 M320.173 44.417 C 320.175 44.666,320.825 45.450,320.830 45.208 C 320.832 45.094,320.833 44.944,320.833 44.875 C 320.833 44.806,320.756 44.750,320.661 44.750 C 320.566 44.750,320.417 44.637,320.330 44.500 C 320.243 44.362,320.172 44.325,320.173 44.417 M233.907 45.070 C 233.729 45.200,233.628 45.350,233.682 45.404 C 233.736 45.458,233.916 45.352,234.082 45.168 C 234.436 44.776,234.364 44.736,233.907 45.070 M149.333 47.417 C 149.549 47.646,149.791 47.833,149.871 47.833 C 149.951 47.833,149.815 47.646,149.568 47.417 C 149.320 47.188,149.078 47.000,149.030 47.000 C 148.982 47.000,149.118 47.188,149.333 47.417 M38.333 47.343 C 38.333 47.440,38.264 47.477,38.178 47.424 C 38.093 47.371,37.985 47.389,37.939 47.464 C 37.893 47.539,38.029 47.600,38.243 47.600 C 38.493 47.600,38.601 47.523,38.547 47.383 C 38.447 47.122,38.333 47.100,38.333 47.343 M132.667 48.881 C 132.667 48.912,132.892 49.104,133.167 49.307 C 133.442 49.510,133.667 49.601,133.667 49.509 C 133.667 49.417,133.442 49.226,133.167 49.083 C 132.892 48.941,132.667 48.850,132.667 48.881 M149.240 52.736 C 149.063 52.866,148.961 53.017,149.015 53.071 C 149.069 53.125,149.249 53.018,149.416 52.834 C 149.770 52.443,149.697 52.402,149.240 52.736 M296.167 56.250 C 296.167 56.387,296.288 56.500,296.437 56.500 C 296.659 56.500,296.670 56.455,296.500 56.250 C 296.386 56.112,296.264 56.000,296.230 56.000 C 296.195 56.000,296.167 56.112,296.167 56.250 M399.333 60.417 C 399.333 60.556,399.481 60.667,399.667 60.667 C 399.852 60.667,400.000 60.556,400.000 60.417 C 400.000 60.278,399.852 60.167,399.667 60.167 C 399.481 60.167,399.333 60.278,399.333 60.417 M345.094 61.218 C 345.154 61.373,345.274 61.500,345.361 61.500 C 345.448 61.500,345.466 61.587,345.401 61.692 C 345.327 61.812,345.355 61.840,345.474 61.766 C 345.580 61.701,345.667 61.726,345.667 61.823 C 345.667 61.921,345.751 62.000,345.854 62.000 C 345.991 62.000,345.992 61.941,345.855 61.776 C 345.753 61.653,345.706 61.503,345.751 61.443 C 345.796 61.383,345.783 61.371,345.722 61.417 C 345.661 61.463,345.470 61.374,345.298 61.218 C 345.005 60.953,344.992 60.953,345.094 61.218 M399.333 62.500 C 399.333 62.592,399.483 62.667,399.667 62.667 C 399.850 62.667,400.000 62.592,400.000 62.500 C 400.000 62.408,399.850 62.333,399.667 62.333 C 399.483 62.333,399.333 62.408,399.333 62.500 M248.083 64.000 C 248.027 64.092,248.041 64.168,248.115 64.169 C 248.189 64.171,248.138 64.242,248.002 64.329 C 247.803 64.455,247.820 64.480,248.094 64.460 C 248.291 64.445,248.444 64.308,248.457 64.134 C 248.481 63.810,248.251 63.728,248.083 64.000 M268.000 64.000 C 268.000 64.092,268.075 64.167,268.167 64.167 C 268.258 64.167,268.315 64.223,268.293 64.292 C 268.271 64.360,268.383 64.602,268.543 64.829 C 268.941 65.394,268.909 65.043,268.502 64.375 C 268.166 63.824,268.000 63.700,268.000 64.000 M301.210 64.131 C 301.222 64.296,301.363 64.429,301.526 64.429 C 301.798 64.429,301.800 64.406,301.551 64.131 C 301.403 63.967,301.260 63.833,301.235 63.833 C 301.209 63.833,301.197 63.967,301.210 64.131 M346.833 64.730 C 346.833 64.764,346.946 64.886,347.083 65.000 C 347.288 65.170,347.333 65.159,347.333 64.937 C 347.333 64.788,347.221 64.667,347.083 64.667 C 346.946 64.667,346.833 64.695,346.833 64.730 M93.477 65.116 C 93.689 65.521,94.000 65.770,94.000 65.536 C 94.000 65.453,93.839 65.242,93.642 65.067 C 93.287 64.752,93.286 64.753,93.477 65.116 M145.333 66.104 C 145.333 66.325,145.379 66.337,145.583 66.167 C 145.721 66.053,145.833 65.931,145.833 65.896 C 145.833 65.862,145.721 65.833,145.583 65.833 C 145.446 65.833,145.333 65.955,145.333 66.104 M47.330 73.421 C 47.008 73.809,47.238 73.882,47.582 73.501 C 47.749 73.317,47.808 73.167,47.713 73.167 C 47.618 73.167,47.446 73.281,47.330 73.421 M103.500 75.396 C 103.500 75.431,103.612 75.553,103.750 75.667 C 103.955 75.837,104.000 75.825,104.000 75.604 C 104.000 75.455,103.888 75.333,103.750 75.333 C 103.612 75.333,103.500 75.362,103.500 75.396 M220.667 76.667 C 220.485 76.784,220.476 76.829,220.635 76.831 C 220.755 76.832,220.810 76.903,220.757 76.988 C 220.704 77.074,220.722 77.181,220.797 77.228 C 220.872 77.274,220.933 77.129,220.933 76.906 C 220.933 76.683,220.930 76.501,220.925 76.503 C 220.920 76.504,220.804 76.578,220.667 76.667 M300.162 76.673 C 299.996 76.778,299.984 76.829,300.125 76.831 C 300.240 76.832,300.315 76.924,300.292 77.034 C 300.269 77.145,300.325 77.239,300.417 77.245 C 300.508 77.251,300.665 77.307,300.764 77.370 C 300.863 77.434,300.944 77.380,300.944 77.252 C 300.944 77.124,300.867 77.033,300.771 77.051 C 300.676 77.069,300.595 76.996,300.591 76.889 C 300.579 76.582,300.427 76.505,300.162 76.673 M45.051 77.895 C 45.069 77.990,44.990 78.072,44.875 78.076 C 44.760 78.080,44.667 78.140,44.667 78.208 C 44.667 78.732,44.674 78.747,44.813 78.527 C 44.890 78.405,45.021 78.311,45.102 78.319 C 45.183 78.327,45.251 78.277,45.253 78.208 C 45.254 78.140,45.307 78.002,45.370 77.903 C 45.434 77.803,45.380 77.722,45.252 77.722 C 45.124 77.722,45.033 77.800,45.051 77.895 M60.500 78.333 C 60.683 78.517,60.882 78.667,60.942 78.667 C 61.003 78.667,60.916 78.517,60.750 78.333 C 60.584 78.150,60.385 78.000,60.308 78.000 C 60.230 78.000,60.317 78.150,60.500 78.333 M170.333 79.104 C 170.333 79.325,170.379 79.337,170.583 79.167 C 170.721 79.053,170.833 78.931,170.833 78.896 C 170.833 78.862,170.721 78.833,170.583 78.833 C 170.446 78.833,170.333 78.955,170.333 79.104 M11.333 80.333 C 11.333 80.517,11.408 80.667,11.500 80.667 C 11.592 80.667,11.667 80.517,11.667 80.333 C 11.667 80.150,11.592 80.000,11.500 80.000 C 11.408 80.000,11.333 80.150,11.333 80.333 M71.333 80.333 C 71.333 80.517,71.408 80.667,71.500 80.667 C 71.592 80.667,71.667 80.517,71.667 80.333 C 71.667 80.150,71.592 80.000,71.500 80.000 C 71.408 80.000,71.333 80.150,71.333 80.333 " stroke="none" fill="#555500" fill-rule="evenodd"></path><path id="path2" d="M162.167 0.323 C 162.167 0.563,162.032 0.659,161.639 0.698 C 161.202 0.741,161.077 0.851,160.916 1.333 C 160.784 1.731,160.604 1.934,160.352 1.971 C 159.903 2.037,159.667 2.597,159.667 3.594 C 159.667 4.206,159.613 4.333,159.354 4.333 C 158.544 4.333,158.583 2.554,158.583 39.234 C 158.583 74.803,158.572 74.189,159.221 74.849 C 159.438 75.070,159.660 75.532,159.714 75.877 C 159.820 76.551,160.438 77.558,160.662 77.420 C 160.737 77.373,160.914 77.626,161.056 77.981 C 161.302 78.595,161.361 78.633,162.281 78.771 C 163.182 78.907,163.253 78.950,163.333 79.417 L 163.420 79.917 166.502 79.964 C 170.190 80.021,170.333 79.997,170.333 79.330 C 170.333 78.870,170.380 78.832,170.958 78.817 C 172.030 78.788,172.396 78.613,172.557 78.052 C 172.666 77.669,172.828 77.509,173.177 77.440 C 173.615 77.352,173.657 77.274,173.762 76.343 C 173.865 75.433,173.927 75.311,174.438 75.010 L 175.000 74.678 175.000 39.744 C 175.000 2.094,175.052 4.333,174.179 4.333 C 173.870 4.333,173.833 4.232,173.831 3.375 C 173.828 2.253,173.737 2.066,173.123 1.912 C 172.799 1.830,172.667 1.691,172.667 1.432 C 172.667 0.960,172.366 0.667,171.883 0.667 C 171.611 0.667,171.500 0.570,171.500 0.333 C 171.500 0.008,171.389 0.000,166.833 0.000 C 162.329 0.000,162.167 0.011,162.167 0.323 M192.833 0.333 C 192.833 0.614,192.721 0.667,192.125 0.669 C 191.030 0.672,190.713 0.810,190.610 1.326 C 190.539 1.678,190.395 1.813,190.005 1.891 C 189.602 1.971,189.472 2.101,189.392 2.499 C 189.321 2.852,189.168 3.035,188.883 3.107 C 188.335 3.244,188.167 3.770,188.167 5.344 C 188.167 6.398,188.117 6.667,187.921 6.667 C 187.680 6.667,187.210 7.422,187.247 7.750 C 187.303 8.238,187.554 8.661,187.842 8.753 C 188.128 8.843,188.167 9.014,188.167 10.167 C 188.167 11.730,188.336 12.256,188.883 12.393 C 189.168 12.465,189.321 12.648,189.392 13.001 C 189.472 13.399,189.602 13.529,190.005 13.609 C 190.395 13.687,190.539 13.822,190.610 14.174 C 190.724 14.744,191.004 14.828,192.792 14.831 C 194.016 14.833,194.167 14.867,194.167 15.141 C 194.167 15.731,194.701 16.000,195.876 16.000 C 197.046 16.000,197.500 15.765,197.500 15.161 C 197.500 14.876,197.659 14.841,199.125 14.798 L 200.750 14.750 201.040 14.167 C 201.239 13.766,201.474 13.557,201.790 13.499 C 202.166 13.430,202.265 13.309,202.333 12.832 C 202.393 12.416,202.512 12.234,202.750 12.194 C 203.390 12.088,203.417 11.904,203.417 7.617 L 203.417 3.417 202.875 3.178 C 202.451 2.992,202.333 2.839,202.333 2.477 C 202.333 2.081,202.250 2.000,201.750 1.906 C 201.337 1.828,201.167 1.708,201.167 1.493 C 201.167 1.021,200.698 0.667,200.071 0.667 C 199.611 0.667,199.500 0.602,199.500 0.333 C 199.500 -0.121,199.207 -0.089,199.118 0.375 L 199.045 0.750 199.023 0.375 C 198.989 -0.183,192.833 -0.224,192.833 0.333 M283.167 0.323 C 283.167 0.565,283.032 0.659,282.625 0.698 C 282.157 0.743,282.077 0.819,282.034 1.259 C 281.993 1.671,281.881 1.799,281.450 1.926 C 280.925 2.081,280.916 2.102,280.867 3.208 C 280.827 4.135,280.768 4.334,280.534 4.339 C 279.596 4.356,279.667 1.470,279.667 39.804 L 279.667 74.822 280.042 75.030 C 280.248 75.144,280.492 75.241,280.583 75.244 C 280.675 75.247,280.773 75.697,280.801 76.244 C 280.859 77.363,281.030 77.667,281.604 77.667 C 281.913 77.667,282.000 77.756,282.000 78.073 C 282.000 78.535,282.168 78.675,282.902 78.825 C 283.185 78.883,283.417 79.022,283.417 79.135 C 283.417 79.810,284.308 79.998,287.516 79.999 C 290.810 80.000,290.919 79.975,291.215 79.136 C 291.275 78.968,291.534 78.835,291.865 78.803 C 292.352 78.756,292.423 78.687,292.469 78.208 C 292.514 77.742,292.584 77.667,292.977 77.667 C 293.533 77.667,293.833 77.393,293.833 76.887 C 293.833 76.623,293.958 76.475,294.239 76.404 C 294.735 76.280,295.000 75.265,295.000 73.492 L 295.000 72.333 295.333 72.667 C 295.517 72.850,295.773 73.000,295.903 73.000 C 296.034 73.000,296.189 73.220,296.248 73.489 C 296.325 73.842,296.480 74.007,296.803 74.080 C 297.089 74.145,297.340 74.373,297.500 74.716 C 297.678 75.096,297.882 75.265,298.208 75.303 C 298.460 75.332,298.676 75.425,298.688 75.511 C 298.699 75.597,298.718 75.748,298.729 75.847 C 298.766 76.167,299.383 76.500,299.939 76.500 C 300.237 76.500,300.534 76.587,300.599 76.692 C 300.680 76.823,300.643 76.840,300.484 76.744 C 300.285 76.624,300.284 76.645,300.477 76.883 C 300.602 77.037,300.762 77.127,300.833 77.083 C 300.904 77.040,301.001 77.153,301.049 77.335 C 301.116 77.590,301.277 77.667,301.750 77.667 C 302.228 77.667,302.384 77.742,302.453 78.007 C 302.601 78.570,303.357 78.833,304.825 78.833 C 305.872 78.833,306.167 78.885,306.167 79.070 C 306.167 79.906,306.932 80.007,312.857 79.961 L 318.417 79.917 318.575 79.381 L 318.732 78.845 320.325 78.797 L 321.917 78.750 322.155 78.208 C 322.385 77.686,322.428 77.667,323.369 77.667 C 324.363 77.667,324.467 77.599,324.569 76.888 C 324.600 76.673,324.780 76.569,325.182 76.536 C 326.036 76.464,326.678 76.158,326.834 75.747 C 326.920 75.522,327.170 75.341,327.481 75.279 C 327.879 75.199,328.018 75.060,328.128 74.630 C 328.238 74.205,328.369 74.072,328.716 74.031 C 329.060 73.990,329.195 73.856,329.300 73.448 C 329.385 73.120,329.561 72.894,329.761 72.857 C 330.253 72.766,330.500 72.500,330.500 72.063 C 330.500 71.799,330.597 71.665,330.792 71.661 C 331.314 71.652,331.634 71.251,331.753 70.457 C 331.817 70.028,331.993 69.581,332.143 69.464 C 332.392 69.270,332.394 69.280,332.173 69.583 C 332.039 69.767,332.170 69.696,332.465 69.427 C 332.824 69.098,333.000 68.784,333.000 68.469 C 333.000 68.114,333.080 68.000,333.327 68.000 C 333.741 68.000,333.975 67.565,334.111 66.548 C 334.184 66.003,334.362 65.601,334.673 65.280 C 335.137 64.800,335.328 64.110,335.331 62.902 C 335.333 62.336,335.405 62.188,335.753 62.029 C 336.381 61.743,336.500 61.206,336.500 58.656 C 336.500 56.458,336.518 56.333,336.827 56.333 C 337.526 56.333,337.581 55.884,337.626 49.843 L 337.669 44.103 337.249 43.468 C 337.018 43.119,336.755 42.833,336.664 42.833 C 336.564 42.833,336.500 41.876,336.500 40.367 C 336.500 37.771,336.428 37.500,335.740 37.500 C 335.404 37.500,335.374 37.400,335.294 36.001 C 335.207 34.469,335.020 34.000,334.499 34.000 C 334.267 34.000,334.180 33.802,334.087 33.057 C 333.931 31.806,333.864 31.667,333.421 31.667 C 333.118 31.667,333.025 31.550,332.948 31.075 C 332.890 30.718,332.651 30.297,332.344 30.010 C 332.046 29.732,331.781 29.272,331.704 28.902 C 331.594 28.373,331.484 28.245,331.036 28.129 C 330.671 28.035,330.500 27.890,330.500 27.676 C 330.500 27.074,330.305 26.833,329.816 26.833 C 329.423 26.833,329.333 26.762,329.333 26.450 C 329.333 25.965,329.039 25.667,328.561 25.667 C 328.324 25.667,328.147 25.534,328.073 25.299 C 327.894 24.738,327.597 24.519,326.846 24.399 C 326.468 24.339,326.112 24.213,326.054 24.119 C 325.988 24.012,326.036 24.000,326.183 24.085 C 326.311 24.160,326.200 24.015,325.934 23.763 C 325.669 23.511,325.200 23.264,324.893 23.214 C 324.585 23.164,324.333 23.053,324.333 22.966 C 324.333 22.433,323.242 22.000,321.897 22.000 C 321.089 22.000,321.036 21.974,320.946 21.522 C 320.808 20.833,320.871 20.838,312.454 20.836 L 304.825 20.833 304.680 21.215 C 304.454 21.810,304.170 21.947,302.934 22.056 C 301.787 22.158,301.167 22.469,301.167 22.942 C 301.167 23.066,301.012 23.167,300.822 23.167 C 300.248 23.167,299.833 23.484,299.833 23.923 C 299.833 24.237,299.746 24.334,299.458 24.334 C 298.616 24.336,297.834 24.683,297.585 25.163 C 297.419 25.485,297.185 25.662,296.877 25.697 C 296.493 25.741,296.408 25.840,296.364 26.292 C 296.318 26.769,296.254 26.833,295.817 26.833 C 295.460 26.833,295.281 26.937,295.172 27.208 C 295.080 27.438,295.016 23.084,295.009 16.000 C 294.995 3.087,295.001 3.192,294.310 3.054 C 293.917 2.975,293.833 2.874,293.833 2.474 C 293.833 1.676,293.419 0.891,292.935 0.769 C 292.649 0.698,292.500 0.547,292.500 0.330 C 292.500 0.009,292.374 0.000,287.833 0.000 C 283.329 0.000,283.167 0.011,283.167 0.323 M4.952 1.953 C 4.595 2.007,4.464 2.137,4.389 2.512 C 4.299 2.961,4.234 3.000,3.573 3.000 C 2.590 3.000,2.000 3.248,2.000 3.661 C 2.000 3.886,1.794 4.094,1.375 4.291 C 0.771 4.575,0.748 4.616,0.700 5.542 C 0.657 6.364,0.604 6.500,0.325 6.500 C 0.004 6.500,0.000 6.909,0.000 41.417 C 0.000 76.222,0.001 76.333,0.333 76.333 C 0.614 76.333,0.667 76.445,0.669 77.042 C 0.673 78.293,0.933 78.702,1.750 78.742 C 1.842 78.746,1.942 78.975,1.973 79.249 C 2.041 79.845,2.237 79.994,2.958 79.997 C 3.403 80.000,3.503 80.067,3.517 80.375 C 3.533 80.735,3.539 80.733,3.667 80.333 C 3.795 79.934,3.801 79.932,3.817 80.292 L 3.833 80.667 7.583 80.667 C 11.190 80.667,11.333 80.654,11.333 80.342 C 11.333 80.063,11.470 80.010,12.292 79.967 C 13.225 79.918,13.255 79.901,13.438 79.333 C 13.566 78.934,13.741 78.733,13.993 78.695 C 14.431 78.629,14.833 77.784,14.833 76.931 C 14.833 76.565,14.944 76.272,15.133 76.134 C 16.062 75.460,16.000 77.289,16.000 50.768 C 16.000 37.390,16.033 26.478,16.074 26.518 C 16.114 26.559,16.161 27.442,16.177 28.481 C 16.216 30.905,16.408 31.411,17.208 31.200 C 17.277 31.182,17.333 31.945,17.333 32.896 C 17.333 35.229,17.435 35.671,18.026 35.894 L 18.500 36.073 18.500 37.860 C 18.500 38.891,18.572 39.691,18.669 39.752 C 18.763 39.809,18.795 39.927,18.742 40.013 C 18.689 40.099,18.874 40.300,19.155 40.460 L 19.665 40.750 19.666 42.464 C 19.667 44.348,19.912 45.230,20.485 45.412 C 20.800 45.512,20.835 45.655,20.846 46.886 C 20.853 47.636,20.890 48.419,20.929 48.625 C 20.968 48.831,21.022 49.140,21.048 49.310 C 21.104 49.665,21.556 50.167,21.821 50.167 C 21.934 50.167,22.000 50.683,22.000 51.571 C 22.000 53.419,22.285 54.652,22.762 54.869 C 23.095 55.021,23.131 55.184,23.199 56.815 C 23.274 58.632,23.607 59.667,24.119 59.667 C 24.275 59.667,24.337 60.040,24.346 61.042 C 24.359 62.407,24.386 62.691,24.581 63.469 C 24.694 63.917,25.128 64.417,25.405 64.417 C 25.517 64.417,25.614 65.136,25.667 66.342 C 25.753 68.332,26.025 69.167,26.587 69.167 C 26.785 69.167,26.834 69.451,26.836 70.625 C 26.839 72.527,26.927 72.827,27.522 72.946 C 27.994 73.041,28.000 73.056,28.002 74.229 C 28.005 75.567,28.254 76.225,28.786 76.302 C 29.071 76.343,29.159 76.485,29.199 76.969 C 29.245 77.525,29.300 77.588,29.782 77.635 C 30.245 77.680,30.320 77.755,30.365 78.218 C 30.410 78.684,30.484 78.757,30.958 78.802 C 31.356 78.841,31.500 78.937,31.500 79.164 C 31.500 79.815,31.688 80.000,32.351 80.000 C 32.889 80.000,33.000 80.057,33.000 80.333 C 33.000 80.658,33.111 80.667,37.500 80.667 C 41.889 80.667,42.000 80.658,42.000 80.333 C 42.000 80.067,42.111 80.000,42.550 80.000 C 43.312 80.000,43.991 79.655,44.106 79.208 C 44.159 79.002,44.270 78.833,44.351 78.833 C 44.433 78.833,44.500 78.688,44.500 78.510 C 44.500 78.332,44.587 78.133,44.692 78.067 C 44.823 77.987,44.840 78.024,44.744 78.183 C 44.624 78.381,44.645 78.382,44.883 78.189 C 45.037 78.064,45.122 77.896,45.072 77.814 C 45.021 77.733,45.135 77.667,45.323 77.667 C 45.603 77.667,45.667 77.561,45.667 77.097 C 45.667 76.603,45.732 76.512,46.150 76.420 C 46.709 76.298,46.828 75.991,46.831 74.667 C 46.833 73.820,46.878 73.714,47.417 73.285 L 48.000 72.819 48.000 70.993 L 48.000 69.167 48.421 69.167 C 49.077 69.167,49.297 68.385,49.320 65.976 C 49.333 64.602,49.352 64.532,49.732 64.436 C 50.277 64.299,50.348 64.040,50.455 61.804 C 50.543 59.955,50.567 59.853,50.927 59.762 C 51.413 59.640,51.667 58.545,51.667 56.572 C 51.667 55.224,51.686 55.151,52.087 54.968 C 52.656 54.709,52.802 54.077,52.821 51.795 C 52.833 50.389,52.847 50.336,53.247 50.236 C 53.810 50.095,53.998 49.336,53.999 47.198 C 54.000 46.229,54.065 45.521,54.149 45.573 C 54.795 45.972,55.137 44.969,55.154 42.625 C 55.166 40.988,55.194 40.833,55.480 40.833 C 56.098 40.833,56.247 40.371,56.333 38.183 C 56.393 36.690,56.475 36.083,56.620 36.083 C 57.328 36.083,57.500 35.570,57.500 33.453 L 57.500 31.402 58.042 31.243 C 58.485 31.112,58.602 30.978,58.686 30.500 C 58.743 30.179,58.802 40.004,58.817 52.333 C 58.846 76.293,58.811 75.333,59.643 75.333 C 59.967 75.333,60.000 75.424,60.000 76.295 C 60.000 77.291,60.645 78.636,61.013 78.409 C 61.102 78.354,61.161 78.370,61.145 78.446 C 60.977 79.217,61.884 79.993,62.958 79.998 C 63.388 80.000,63.500 80.069,63.500 80.333 C 63.500 80.657,63.611 80.667,67.417 80.667 C 71.184 80.667,71.333 80.654,71.333 80.343 C 71.333 80.081,71.469 80.009,72.042 79.968 C 72.680 79.922,72.766 79.863,72.909 79.375 C 72.997 79.077,73.152 78.833,73.253 78.833 C 73.766 78.833,74.079 78.339,74.163 77.398 C 74.240 76.539,74.296 76.419,74.661 76.334 C 74.909 76.276,75.116 76.076,75.186 75.827 C 75.512 74.657,75.341 6.804,75.012 6.718 C 74.832 6.671,74.727 6.537,74.774 6.415 C 74.820 6.294,74.708 6.149,74.521 6.090 C 74.267 6.009,74.173 5.813,74.134 5.283 C 74.090 4.679,74.010 4.549,73.545 4.333 C 73.181 4.164,73.006 3.965,73.004 3.718 C 72.999 3.245,72.837 3.157,71.786 3.059 C 70.616 2.949,70.534 2.913,70.471 2.475 C 70.386 1.887,70.116 1.868,61.636 1.850 C 53.493 1.833,52.949 1.872,52.752 2.493 C 52.692 2.683,52.573 2.795,52.488 2.743 C 52.403 2.690,52.333 2.726,52.333 2.823 C 52.333 2.921,52.240 3.000,52.125 3.001 C 51.229 3.005,50.707 3.348,50.602 4.002 C 50.544 4.368,50.427 4.667,50.343 4.667 C 50.258 4.667,50.143 4.813,50.086 4.991 C 50.029 5.170,49.837 5.363,49.658 5.419 C 49.377 5.509,49.333 5.679,49.333 6.682 C 49.333 7.828,49.328 7.843,48.851 7.938 C 48.278 8.053,48.167 8.430,48.167 10.260 C 48.167 11.274,48.118 11.493,47.875 11.570 C 47.284 11.758,47.097 12.356,47.030 14.282 C 46.965 16.142,46.964 16.147,46.507 16.306 C 45.955 16.498,45.838 17.017,45.835 19.278 L 45.833 20.807 45.347 20.914 C 44.718 21.052,44.691 21.145,44.657 23.281 C 44.631 24.950,44.481 25.611,44.170 25.419 C 43.769 25.171,43.448 26.053,43.370 27.623 C 43.298 29.053,43.241 29.294,42.901 29.611 C 42.354 30.120,42.199 30.783,42.179 32.688 C 42.167 33.926,42.154 33.965,41.689 34.158 C 41.142 34.384,41.004 35.032,41.001 37.375 C 41.000 38.329,40.943 38.667,40.781 38.667 C 40.050 38.667,39.833 39.273,39.833 41.319 L 39.833 43.292 39.355 43.387 C 38.748 43.509,38.672 43.794,38.669 45.958 C 38.668 46.898,38.610 47.658,38.542 47.647 C 38.175 47.589,37.974 47.693,38.054 47.900 C 38.107 48.039,38.013 48.168,37.822 48.218 C 37.531 48.294,37.497 48.477,37.470 50.109 L 37.441 51.917 37.335 49.917 C 37.217 47.700,37.159 47.482,36.622 47.246 C 36.279 47.096,36.246 46.957,36.202 45.443 C 36.155 43.836,35.857 42.863,35.482 43.095 C 35.400 43.145,35.333 43.069,35.333 42.927 C 35.333 42.784,35.258 42.667,35.167 42.667 C 35.067 42.667,35.000 42.030,35.000 41.091 C 35.000 39.290,34.800 38.667,34.223 38.667 C 33.839 38.667,33.833 38.639,33.821 36.875 C 33.803 34.440,33.678 34.000,33.001 34.000 C 32.745 34.000,32.699 33.769,32.627 32.125 C 32.535 30.018,32.476 29.799,31.926 29.505 C 31.563 29.311,31.532 29.177,31.472 27.565 C 31.410 25.878,31.395 25.822,30.893 25.363 C 30.391 24.905,30.376 24.846,30.301 23.123 C 30.218 21.227,30.063 20.833,29.396 20.833 L 29.000 20.833 29.000 18.700 C 29.000 16.438,28.916 16.167,28.217 16.167 C 27.844 16.167,27.833 16.122,27.831 14.625 C 27.829 12.334,27.712 11.821,27.141 11.606 L 26.667 11.427 26.667 9.817 C 26.667 8.150,26.585 7.931,25.917 7.808 C 25.634 7.756,25.576 7.595,25.536 6.748 C 25.483 5.626,25.132 4.717,24.721 4.637 C 24.564 4.606,24.367 4.301,24.261 3.923 C 24.099 3.345,23.999 3.247,23.449 3.133 C 23.103 3.061,22.628 2.809,22.392 2.573 C 22.155 2.337,21.778 2.074,21.554 1.989 C 21.159 1.839,5.927 1.806,4.952 1.953 M118.583 19.780 C 118.400 19.831,118.043 20.089,117.790 20.353 L 117.330 20.833 114.353 20.833 C 110.718 20.833,110.344 20.894,110.106 21.526 C 109.937 21.973,109.871 22.000,108.947 22.000 C 107.878 22.000,106.922 22.357,106.655 22.855 C 106.563 23.026,106.333 23.167,106.144 23.167 C 105.613 23.167,104.650 23.683,104.518 24.038 C 104.453 24.214,104.329 24.346,104.242 24.331 C 103.542 24.212,102.819 24.532,102.724 25.003 C 102.655 25.350,102.527 25.500,102.302 25.500 C 101.853 25.500,101.304 25.817,101.422 26.008 C 101.476 26.095,101.405 26.167,101.266 26.167 C 101.126 26.167,100.934 26.312,100.839 26.489 C 100.735 26.684,100.451 26.833,100.125 26.864 C 99.676 26.908,99.556 27.010,99.424 27.458 C 99.312 27.839,99.163 28.001,98.924 28.003 C 98.431 28.006,98.208 28.193,98.078 28.711 C 98.006 28.997,97.818 29.206,97.579 29.266 C 97.221 29.356,97.010 29.702,96.749 30.627 C 96.691 30.835,96.582 30.967,96.507 30.921 C 96.432 30.875,96.278 30.949,96.165 31.085 C 96.052 31.222,96.025 31.336,96.105 31.338 C 96.185 31.341,96.119 31.420,95.958 31.513 C 95.770 31.623,95.667 31.886,95.667 32.258 C 95.667 32.784,95.625 32.833,95.174 32.833 C 94.651 32.833,94.572 33.016,94.460 34.484 C 94.425 34.946,94.339 35.064,94.004 35.114 C 93.337 35.214,93.205 35.508,93.179 36.947 C 93.169 37.538,93.110 37.652,92.792 37.697 C 92.295 37.767,92.031 38.776,92.013 40.672 C 92.000 42.083,91.996 42.095,91.516 42.276 C 90.853 42.527,90.792 43.352,90.861 51.083 C 90.920 57.579,90.993 58.167,91.747 58.167 C 91.894 58.167,91.964 58.581,91.986 59.597 C 92.026 61.381,92.278 62.230,92.792 62.303 C 93.119 62.350,93.167 62.456,93.170 63.137 C 93.175 64.091,93.708 65.332,94.165 65.451 C 94.416 65.517,94.500 65.678,94.500 66.096 C 94.500 66.707,95.077 67.403,95.461 67.256 C 95.584 67.209,95.647 67.231,95.601 67.304 C 95.378 67.666,96.028 69.167,96.408 69.167 C 96.726 69.167,96.809 69.280,96.897 69.833 C 96.994 70.435,97.052 70.500,97.491 70.500 C 97.918 70.500,97.985 70.566,98.031 71.036 C 98.074 71.477,98.177 71.600,98.608 71.722 C 99.002 71.835,99.157 71.992,99.230 72.356 C 99.305 72.731,99.441 72.863,99.839 72.943 C 100.229 73.021,100.373 73.155,100.443 73.507 C 100.516 73.873,100.653 73.992,101.101 74.076 C 101.500 74.150,101.667 74.272,101.667 74.487 C 101.667 75.048,102.172 75.296,103.364 75.321 C 103.933 75.332,103.983 75.374,104.031 75.875 C 104.081 76.388,104.122 76.419,104.830 76.470 C 105.241 76.499,105.669 76.599,105.781 76.692 C 105.893 76.786,106.063 76.814,106.157 76.756 C 106.252 76.697,106.294 76.747,106.250 76.866 C 106.074 77.344,106.483 77.583,107.618 77.667 C 108.720 77.748,108.750 77.762,108.834 78.250 L 108.919 78.750 110.716 78.797 C 111.806 78.826,112.474 78.907,112.414 79.004 C 112.360 79.092,112.500 79.349,112.726 79.575 L 113.137 79.986 119.963 79.996 C 127.412 80.008,127.266 80.021,127.420 79.319 L 127.526 78.833 129.155 78.833 C 131.030 78.833,131.793 78.627,132.008 78.063 C 132.131 77.740,132.278 77.667,132.804 77.667 C 133.756 77.667,134.454 77.374,134.566 76.927 C 134.647 76.605,134.798 76.530,135.499 76.462 C 136.332 76.382,137.000 75.984,137.000 75.568 C 137.000 75.449,137.238 75.331,137.536 75.302 C 137.977 75.259,138.100 75.156,138.223 74.724 C 138.354 74.263,138.463 74.185,139.115 74.087 C 139.855 73.976,140.500 73.526,140.500 73.120 C 140.500 73.002,140.724 72.822,140.998 72.718 C 141.280 72.612,141.569 72.340,141.663 72.094 C 141.754 71.854,141.961 71.608,142.122 71.547 C 142.420 71.434,142.932 71.000,142.768 71.000 C 142.719 71.000,142.820 70.669,142.993 70.265 C 143.167 69.861,143.258 69.474,143.196 69.405 C 143.134 69.336,143.176 69.333,143.288 69.398 C 143.648 69.605,144.167 69.190,144.167 68.695 C 144.167 68.320,144.267 68.206,144.708 68.076 C 145.237 67.921,145.251 67.891,145.300 66.875 C 145.349 65.849,145.356 65.833,145.831 65.833 C 146.436 65.833,146.494 65.735,146.635 64.465 C 146.737 63.547,146.796 63.421,147.161 63.335 C 147.671 63.214,147.795 62.798,147.817 61.136 C 147.833 59.868,147.838 59.855,148.291 59.803 C 148.902 59.732,148.956 59.420,148.980 55.811 L 149.000 52.872 149.422 52.595 C 149.654 52.443,149.803 52.252,149.753 52.171 C 149.702 52.090,149.728 51.982,149.810 51.931 C 149.997 51.816,150.001 48.667,149.814 48.667 C 149.739 48.667,149.721 48.554,149.774 48.415 C 149.887 48.120,149.385 47.282,149.174 47.412 C 149.094 47.462,149.019 46.217,149.008 44.646 C 148.983 41.254,148.823 40.292,148.241 40.026 C 147.877 39.861,147.833 39.737,147.833 38.884 C 147.833 37.716,147.408 36.500,146.999 36.500 C 146.768 36.500,146.686 36.291,146.593 35.468 C 146.474 34.414,146.210 34.016,145.625 34.005 C 145.402 34.001,145.333 33.858,145.333 33.395 C 145.333 32.921,145.209 32.672,144.760 32.249 C 144.445 31.951,144.122 31.457,144.043 31.151 C 143.941 30.759,143.778 30.566,143.491 30.498 C 143.202 30.430,143.060 30.259,143.000 29.909 C 142.936 29.528,142.794 29.381,142.375 29.257 C 141.938 29.129,141.833 29.011,141.833 28.650 C 141.833 28.197,141.578 28.000,140.991 28.000 C 140.776 28.000,140.632 27.829,140.537 27.458 C 140.422 27.012,140.307 26.908,139.882 26.866 C 139.443 26.822,139.351 26.731,139.261 26.251 C 139.176 25.795,139.070 25.678,138.704 25.636 C 138.406 25.601,138.179 25.429,138.036 25.130 C 137.859 24.758,137.643 24.640,136.827 24.472 C 136.051 24.312,135.833 24.200,135.833 23.963 C 135.833 23.618,135.290 23.367,134.231 23.222 C 133.660 23.143,133.486 23.036,133.333 22.665 C 133.117 22.144,132.603 22.005,130.875 22.002 C 129.873 22.000,129.833 21.984,129.833 21.579 C 129.833 20.932,129.302 20.833,125.822 20.833 C 123.290 20.833,122.667 20.789,122.667 20.609 C 122.667 19.906,120.048 19.374,118.583 19.780 M194.839 19.811 C 194.592 19.882,194.391 20.092,194.333 20.339 C 194.244 20.718,194.152 20.753,193.160 20.791 C 191.283 20.862,191.002 20.954,190.740 21.582 C 190.568 21.992,190.384 22.158,190.058 22.197 C 189.718 22.237,189.565 22.386,189.421 22.818 C 189.316 23.130,189.080 23.441,188.897 23.509 C 188.412 23.688,188.167 24.714,188.167 26.561 C 188.167 27.592,188.103 28.167,187.988 28.167 C 187.220 28.167,187.253 27.238,187.209 50.038 L 187.168 71.350 187.566 71.748 C 187.785 71.967,187.923 72.189,187.871 72.240 C 187.820 72.291,187.865 72.333,187.972 72.333 C 188.105 72.333,188.170 72.797,188.176 73.792 C 188.187 75.559,188.432 76.395,188.958 76.470 C 189.219 76.507,189.333 76.636,189.333 76.895 C 189.333 77.369,189.631 77.667,190.106 77.667 C 190.405 77.667,190.489 77.774,190.531 78.208 C 190.579 78.701,190.639 78.755,191.197 78.801 C 191.719 78.844,191.827 78.923,191.915 79.326 C 192.055 79.963,192.240 79.995,195.781 79.998 C 199.083 80.000,199.570 79.910,199.732 79.262 C 199.815 78.930,199.944 78.833,200.303 78.833 C 200.867 78.833,201.167 78.561,201.167 78.050 C 201.167 77.761,201.261 77.667,201.550 77.667 C 202.052 77.667,202.333 77.369,202.333 76.837 C 202.333 76.517,202.455 76.360,202.808 76.227 C 203.522 75.958,203.500 76.800,203.500 49.846 C 203.500 23.188,203.535 24.333,202.717 24.333 C 202.389 24.333,202.333 24.248,202.333 23.742 C 202.333 22.969,201.913 22.167,201.508 22.167 C 201.333 22.167,201.054 21.995,200.887 21.786 C 200.287 21.033,199.816 20.833,198.641 20.833 C 197.686 20.833,197.508 20.787,197.421 20.515 C 197.224 19.892,195.858 19.520,194.839 19.811 M237.750 19.787 C 237.264 19.907,237.000 20.165,237.000 20.520 C 237.000 20.815,236.822 20.833,233.958 20.836 C 230.727 20.838,230.224 20.937,229.919 21.628 C 229.785 21.931,229.614 22.002,229.002 22.011 C 227.304 22.037,226.598 22.261,226.417 22.833 C 226.342 23.068,226.165 23.167,225.817 23.167 C 225.115 23.167,224.151 23.607,224.056 23.971 C 224.006 24.160,223.736 24.340,223.362 24.432 C 222.864 24.555,222.740 24.669,222.697 25.042 C 222.656 25.404,222.558 25.500,222.232 25.500 C 221.555 25.500,220.552 26.103,220.432 26.583 C 220.372 26.820,220.251 26.969,220.163 26.915 C 219.951 26.783,219.119 27.622,219.251 27.835 C 219.307 27.926,219.274 28.000,219.177 28.000 C 219.079 28.000,219.000 28.178,219.000 28.396 C 219.000 28.614,218.869 28.895,218.708 29.021 C 218.439 29.233,218.435 29.225,218.660 28.917 C 218.794 28.733,218.663 28.804,218.369 29.073 C 218.009 29.402,217.833 29.716,217.833 30.031 C 217.833 30.289,217.758 30.500,217.667 30.500 C 217.037 30.500,216.784 31.205,216.702 33.187 C 216.658 34.271,216.559 35.120,216.483 35.073 C 216.408 35.026,216.192 35.141,216.005 35.329 C 215.424 35.909,215.693 37.949,216.385 38.215 C 216.528 38.270,216.656 38.681,216.719 39.291 C 216.857 40.610,216.950 40.805,217.472 40.865 C 217.781 40.901,217.932 41.027,217.968 41.280 C 218.045 41.819,218.375 42.011,219.405 42.118 C 220.158 42.195,220.333 42.271,220.333 42.517 C 220.333 43.089,220.968 43.248,223.266 43.249 C 225.563 43.250,226.000 43.127,226.000 42.480 C 226.000 42.260,226.120 42.167,226.403 42.167 C 226.978 42.167,227.333 42.001,227.333 41.732 C 227.333 41.604,227.418 41.500,227.520 41.500 C 227.656 41.500,227.654 41.436,227.515 41.268 C 227.367 41.089,227.371 41.037,227.536 41.044 C 228.192 41.070,228.308 40.977,228.417 40.333 C 228.511 39.774,228.593 39.667,228.925 39.667 C 229.368 39.667,229.667 39.238,229.667 38.604 C 229.667 38.374,229.743 38.139,229.836 38.082 C 229.929 38.024,229.961 37.905,229.907 37.818 C 229.853 37.730,229.908 37.679,230.029 37.704 C 230.151 37.729,230.231 37.656,230.208 37.542 C 230.185 37.427,230.317 37.333,230.500 37.333 C 230.769 37.333,230.833 37.222,230.833 36.761 C 230.833 36.236,230.879 36.183,231.375 36.136 C 231.851 36.090,231.923 36.018,231.969 35.542 C 232.017 35.046,232.070 35.000,232.594 35.000 C 233.133 35.000,233.167 34.967,233.167 34.440 L 233.167 33.881 234.181 33.775 C 235.363 33.651,235.500 33.588,235.500 33.167 C 235.500 32.684,235.503 32.684,240.182 32.618 C 246.747 32.527,247.667 32.586,247.667 33.100 C 247.667 33.513,247.734 33.563,248.502 33.729 C 248.732 33.779,249.054 34.047,249.218 34.324 C 249.382 34.601,249.606 34.811,249.716 34.789 C 249.841 34.765,249.936 35.017,249.968 35.458 C 250.009 36.031,250.081 36.167,250.343 36.167 C 250.521 36.167,250.658 36.223,250.647 36.292 C 250.587 36.670,250.693 36.859,250.917 36.773 C 251.131 36.691,251.167 36.983,251.167 38.815 L 251.167 40.954 250.316 41.054 C 249.538 41.146,248.833 41.598,248.833 42.003 C 248.833 42.069,248.102 42.157,247.208 42.200 C 245.585 42.279,244.833 42.521,244.833 42.967 C 244.833 43.087,244.765 43.144,244.681 43.092 C 244.597 43.040,244.503 43.063,244.473 43.143 C 244.442 43.223,243.442 43.328,242.250 43.377 C 239.798 43.478,239.537 43.544,239.397 44.102 C 239.300 44.489,239.250 44.500,237.524 44.514 C 235.521 44.529,234.775 44.616,234.694 44.844 C 234.664 44.930,234.549 45.000,234.440 45.000 C 234.330 45.000,234.132 45.150,234.000 45.333 C 233.785 45.631,233.556 45.669,231.838 45.686 C 229.246 45.713,228.955 45.786,228.757 46.458 L 228.598 47.000 226.900 47.000 C 225.109 47.000,225.000 47.048,225.000 47.847 C 225.000 48.134,224.870 48.167,223.708 48.169 C 221.992 48.172,221.709 48.263,221.580 48.850 C 221.488 49.268,221.397 49.333,220.903 49.333 C 220.447 49.333,220.333 49.399,220.333 49.661 C 220.333 49.875,220.252 49.958,220.098 49.899 C 219.957 49.845,219.820 49.947,219.754 50.155 C 219.694 50.345,219.514 50.500,219.355 50.500 C 219.197 50.500,218.977 50.590,218.867 50.700 C 218.757 50.810,218.667 50.830,218.667 50.745 C 218.667 50.659,218.476 50.869,218.244 51.211 C 218.012 51.553,217.723 51.833,217.603 51.833 C 217.221 51.833,216.866 52.393,216.750 53.178 C 216.651 53.850,216.576 53.957,216.111 54.095 C 215.654 54.229,215.576 54.334,215.531 54.883 C 215.491 55.375,215.389 55.551,215.073 55.671 C 214.827 55.764,214.667 55.958,214.667 56.163 C 214.667 56.348,214.592 56.500,214.500 56.500 C 214.404 56.500,214.333 57.030,214.333 57.758 C 214.333 58.861,214.285 59.061,213.943 59.383 C 213.175 60.107,212.763 65.073,213.418 65.727 C 213.546 65.855,213.610 66.001,213.561 66.050 C 213.512 66.100,213.665 66.267,213.902 66.423 C 214.299 66.683,214.333 66.799,214.334 67.894 C 214.336 69.516,214.562 70.271,215.086 70.403 C 215.409 70.484,215.500 70.614,215.500 70.995 C 215.500 71.504,215.807 72.333,215.995 72.333 C 216.309 72.333,216.833 73.067,216.833 73.506 C 216.833 73.940,216.892 74.000,217.315 74.000 C 217.702 74.000,217.820 74.091,217.912 74.457 C 218.071 75.092,218.308 75.333,218.770 75.333 C 219.051 75.333,219.167 75.427,219.167 75.655 C 219.167 76.167,219.631 76.500,220.345 76.500 C 220.705 76.500,220.991 76.556,220.980 76.625 C 220.922 76.992,221.026 77.192,221.234 77.113 C 221.372 77.059,221.501 77.154,221.551 77.345 C 221.617 77.597,221.784 77.667,222.318 77.667 C 222.880 77.667,223.000 77.723,223.000 77.988 C 223.000 78.490,223.889 78.833,225.192 78.833 C 226.023 78.833,226.333 78.893,226.333 79.052 C 226.333 79.979,226.545 80.008,233.039 79.996 L 239.059 79.984 239.591 79.420 C 240.112 78.868,240.158 78.854,241.596 78.820 C 243.481 78.774,243.626 78.730,243.752 78.157 C 243.853 77.699,243.897 77.680,244.960 77.632 C 246.051 77.584,246.065 77.577,246.203 77.042 C 246.336 76.526,246.381 76.500,247.134 76.500 C 248.024 76.500,248.667 76.147,248.667 75.657 C 248.667 75.397,248.784 75.333,249.258 75.333 C 250.024 75.333,250.833 74.913,250.833 74.514 C 250.833 74.291,250.998 74.173,251.423 74.093 C 251.905 74.003,252.030 73.894,252.110 73.491 C 252.185 73.119,252.301 73.000,252.591 73.000 C 252.801 73.000,253.091 72.954,253.236 72.899 C 253.430 72.824,253.501 72.901,253.503 73.191 C 253.506 73.756,253.707 73.993,254.218 74.036 C 254.607 74.068,254.667 74.146,254.667 74.625 C 254.667 75.005,254.757 75.205,254.958 75.267 C 255.488 75.431,255.720 75.598,255.757 75.842 C 255.836 76.367,256.549 77.327,257.011 77.532 C 257.280 77.651,257.500 77.828,257.500 77.926 C 257.500 78.243,258.472 78.833,258.993 78.833 C 259.416 78.833,259.500 78.899,259.500 79.230 C 259.500 79.965,259.775 80.025,262.897 79.969 C 265.919 79.915,266.160 79.858,266.211 79.192 C 266.233 78.895,266.343 78.833,266.850 78.833 C 267.416 78.833,267.471 78.790,267.570 78.260 C 267.664 77.764,267.750 77.680,268.214 77.635 C 268.676 77.590,268.757 77.513,268.800 77.074 C 268.840 76.663,268.953 76.534,269.383 76.407 L 269.917 76.250 269.962 72.929 C 269.991 70.828,269.945 69.545,269.837 69.437 C 269.743 69.343,269.667 69.140,269.667 68.985 C 269.667 68.823,269.489 68.658,269.250 68.598 C 268.841 68.495,268.833 68.465,268.833 66.843 C 268.833 65.190,268.618 64.596,267.802 63.995 C 267.736 63.946,267.660 57.471,267.633 49.606 C 267.579 34.007,267.614 34.562,266.690 34.917 C 266.495 34.991,266.491 34.962,266.664 34.754 C 266.808 34.580,266.815 34.500,266.687 34.500 C 266.565 34.500,266.500 34.057,266.500 33.228 C 266.500 31.634,266.251 30.758,265.729 30.521 C 265.457 30.397,265.333 30.202,265.333 29.898 C 265.333 28.765,264.908 28.050,264.292 28.147 C 264.223 28.158,264.167 27.985,264.167 27.764 C 264.167 27.040,263.996 26.833,263.399 26.833 C 262.867 26.833,262.833 26.800,262.833 26.268 C 262.833 25.690,262.624 25.500,261.986 25.500 C 261.764 25.500,261.667 25.383,261.667 25.117 C 261.667 24.640,261.374 24.333,260.920 24.333 C 260.689 24.333,260.511 24.169,260.388 23.844 C 260.220 23.398,260.113 23.344,259.202 23.241 C 258.280 23.136,258.193 23.091,258.109 22.670 C 258.007 22.162,257.551 22.000,256.222 22.000 C 255.481 22.000,255.270 21.895,254.625 21.208 C 254.282 20.843,254.186 20.833,250.803 20.833 L 247.333 20.833 247.333 20.423 C 247.333 20.187,247.196 19.938,247.011 19.839 C 246.688 19.666,238.430 19.620,237.750 19.787 M370.109 19.971 C 369.957 20.139,369.833 20.396,369.833 20.542 C 369.833 20.773,369.433 20.814,366.708 20.862 C 363.494 20.918,362.833 21.081,362.833 21.815 C 362.833 21.896,362.320 21.991,361.692 22.027 C 360.583 22.090,360.000 22.363,360.000 22.821 C 360.000 22.920,359.944 22.988,359.875 22.974 C 359.806 22.959,359.637 22.986,359.500 23.034 C 359.363 23.082,358.875 23.208,358.417 23.315 C 357.909 23.433,357.436 23.674,357.207 23.932 C 356.999 24.165,356.624 24.393,356.373 24.438 C 355.810 24.539,355.657 24.682,355.623 25.142 C 355.604 25.393,355.485 25.500,355.223 25.500 C 354.775 25.500,353.901 26.252,354.161 26.413 C 354.375 26.545,354.227 26.834,353.948 26.831 C 353.829 26.829,353.850 26.764,354.000 26.667 C 354.174 26.555,354.185 26.504,354.037 26.503 C 353.920 26.501,353.487 26.837,353.075 27.250 C 352.662 27.662,352.260 28.000,352.180 28.000 C 352.026 28.000,351.763 28.500,351.807 28.708 C 351.821 28.777,351.740 28.815,351.625 28.792 C 351.510 28.769,351.435 28.844,351.458 28.958 C 351.481 29.073,351.350 29.167,351.167 29.167 C 350.897 29.167,350.833 29.278,350.833 29.750 C 350.833 30.248,350.777 30.333,350.450 30.333 C 349.938 30.333,349.667 30.633,349.667 31.200 C 349.667 31.603,349.601 31.667,349.186 31.667 C 348.644 31.667,348.506 31.956,348.502 33.101 C 348.500 33.729,348.456 33.798,347.958 33.940 C 347.424 34.093,347.416 34.109,347.367 35.214 C 347.321 36.261,347.293 36.333,346.929 36.333 C 346.293 36.333,346.107 36.751,346.030 38.348 C 345.969 39.626,345.918 39.833,345.667 39.833 C 345.048 39.833,344.919 40.296,344.858 42.725 C 344.803 44.943,344.777 45.096,344.368 45.633 C 343.777 46.407,343.646 48.344,343.804 53.946 C 343.822 54.591,343.924 55.067,344.075 55.218 C 344.209 55.351,344.277 55.501,344.228 55.550 C 344.178 55.599,344.286 55.719,344.467 55.816 C 344.767 55.976,344.802 56.208,344.859 58.410 L 344.921 60.829 345.434 61.298 C 345.900 61.723,345.956 61.886,346.046 63.075 C 346.148 64.431,346.278 64.659,346.951 64.664 C 347.288 64.666,347.322 64.759,347.367 65.792 L 347.417 66.917 347.958 66.969 C 348.467 67.018,348.500 67.060,348.500 67.666 C 348.500 68.591,348.743 69.108,349.238 69.232 C 349.510 69.300,349.667 69.455,349.667 69.656 C 349.667 70.255,349.862 70.500,350.341 70.500 C 350.751 70.500,350.819 70.570,350.864 71.042 C 350.908 71.489,351.010 71.611,351.450 71.741 C 351.847 71.857,351.997 72.007,352.034 72.324 C 352.071 72.641,352.220 72.790,352.619 72.908 C 353.010 73.023,353.182 73.190,353.256 73.527 C 353.336 73.891,353.479 74.012,353.929 74.097 C 354.313 74.169,354.500 74.296,354.500 74.487 C 354.500 74.984,354.898 75.322,355.531 75.361 C 355.868 75.383,356.141 75.441,356.136 75.492 C 356.105 75.820,356.197 76.000,356.396 76.000 C 356.523 76.000,356.719 76.112,356.833 76.250 C 356.947 76.387,357.284 76.500,357.580 76.500 C 357.968 76.500,358.294 76.664,358.739 77.083 C 359.313 77.625,359.433 77.667,360.429 77.667 C 361.351 77.667,361.500 77.709,361.500 77.968 C 361.500 78.701,361.816 78.819,363.833 78.845 C 365.770 78.869,366.333 79.037,366.333 79.591 C 366.333 79.971,366.829 80.000,373.264 80.000 C 380.170 80.000,380.333 79.979,380.333 79.083 C 380.333 78.877,380.637 78.833,382.062 78.833 C 384.401 78.833,384.827 78.734,385.033 78.142 C 385.192 77.686,385.243 77.667,386.260 77.667 C 387.325 77.667,387.881 77.315,387.582 76.832 C 387.528 76.743,387.591 76.712,387.724 76.763 C 387.857 76.814,388.016 76.776,388.076 76.678 C 388.137 76.580,388.557 76.500,389.010 76.500 C 389.673 76.500,389.838 76.443,389.859 76.208 C 389.873 76.048,389.892 75.824,389.902 75.710 C 389.912 75.596,389.994 75.521,390.085 75.543 C 390.176 75.565,390.230 75.658,390.206 75.750 C 390.182 75.842,390.265 75.785,390.391 75.625 C 390.520 75.460,390.843 75.333,391.131 75.333 C 391.713 75.333,392.167 74.963,392.167 74.488 C 392.167 74.259,392.283 74.167,392.571 74.167 C 393.043 74.167,393.500 73.768,393.500 73.356 C 393.500 73.176,393.702 73.009,394.042 72.909 C 394.460 72.786,394.595 72.645,394.636 72.292 C 394.672 71.976,394.785 71.833,394.997 71.833 C 395.620 71.833,395.833 71.640,395.833 71.076 C 395.833 70.572,395.883 70.516,396.375 70.469 C 396.853 70.423,396.923 70.352,396.969 69.869 C 397.013 69.418,397.106 69.304,397.494 69.226 C 397.991 69.127,398.163 68.715,398.170 67.604 C 398.173 67.182,398.275 67.036,398.712 66.833 C 399.008 66.696,399.259 66.490,399.271 66.375 C 399.282 66.260,399.301 65.304,399.313 64.250 C 399.333 62.385,399.343 62.333,399.708 62.317 C 400.068 62.301,400.066 62.295,399.667 62.167 C 399.267 62.039,399.265 62.033,399.625 62.017 C 400.157 61.993,400.198 60.667,399.667 60.667 C 399.360 60.667,399.333 60.556,399.333 59.254 C 399.333 57.861,399.327 57.838,398.845 57.589 C 398.577 57.451,398.305 57.173,398.241 56.973 C 397.979 56.145,396.836 55.167,396.131 55.167 C 395.865 55.167,395.687 55.103,395.735 55.025 C 396.128 54.389,394.718 53.995,392.270 54.058 C 390.422 54.105,390.000 54.267,390.000 54.927 C 390.000 55.036,389.641 55.171,389.190 55.231 C 388.357 55.342,387.958 55.637,387.758 56.292 C 387.696 56.498,387.548 56.667,387.431 56.667 C 387.037 56.667,386.628 57.315,386.542 58.077 C 386.469 58.725,386.403 58.833,386.082 58.833 C 385.641 58.833,385.358 59.132,385.185 59.781 C 385.116 60.039,385.022 60.212,384.976 60.167 C 384.785 59.975,384.306 60.714,384.123 61.481 C 383.956 62.186,383.860 62.320,383.460 62.400 C 383.110 62.470,382.969 62.614,382.896 62.979 C 382.822 63.350,382.683 63.488,382.313 63.563 C 381.937 63.638,381.803 63.775,381.726 64.163 C 381.651 64.538,381.532 64.667,381.263 64.667 C 380.794 64.667,380.500 64.968,380.500 65.450 C 380.500 65.806,380.431 65.833,379.526 65.833 C 378.790 65.833,378.457 65.915,378.167 66.167 C 377.955 66.350,377.724 66.500,377.652 66.500 C 377.581 66.500,377.475 66.650,377.417 66.833 C 377.315 67.154,377.164 67.167,373.489 67.167 L 369.667 67.167 369.667 66.770 C 369.667 66.210,369.325 65.992,368.273 65.884 C 367.460 65.800,367.333 65.735,367.157 65.311 C 367.019 64.977,366.842 64.833,366.567 64.833 C 366.300 64.833,366.093 64.674,365.917 64.333 C 365.763 64.036,365.526 63.833,365.332 63.833 C 365.116 63.833,364.968 63.680,364.892 63.377 C 364.757 62.840,364.455 62.500,364.113 62.500 C 363.979 62.500,363.818 62.294,363.755 62.043 C 363.606 61.449,363.363 61.167,363.001 61.167 C 362.768 61.167,362.687 60.963,362.595 60.148 C 362.489 59.219,362.436 59.114,361.990 58.945 C 361.509 58.763,361.500 58.738,361.479 57.463 C 361.468 56.750,361.445 56.110,361.428 56.042 C 361.411 55.973,361.339 55.603,361.269 55.220 C 361.165 54.652,361.051 54.492,360.654 54.354 L 360.167 54.184 360.167 50.425 C 360.167 48.045,360.228 46.659,360.333 46.646 C 360.425 46.634,360.593 46.616,360.706 46.604 C 361.126 46.562,361.394 45.574,361.468 43.792 C 361.527 42.376,361.593 42.000,361.783 42.000 C 362.222 42.000,362.492 41.541,362.602 40.611 C 362.691 39.849,362.772 39.676,363.077 39.600 C 363.465 39.502,363.833 38.612,363.833 37.772 C 363.833 37.399,363.906 37.333,364.316 37.333 C 364.803 37.333,365.000 37.093,365.000 36.497 C 365.000 36.270,365.144 36.174,365.542 36.136 C 366.018 36.090,366.090 36.018,366.136 35.542 C 366.187 35.011,366.205 35.000,367.004 35.000 C 367.835 35.000,368.500 34.578,368.500 34.052 C 368.500 33.896,368.811 33.827,369.583 33.813 C 370.179 33.801,370.742 33.773,370.833 33.750 C 370.925 33.727,371.289 33.699,371.641 33.688 C 372.277 33.667,373.000 33.224,373.000 32.855 C 373.000 32.503,373.466 32.665,373.775 33.125 C 374.144 33.674,374.070 33.656,376.430 33.782 C 377.468 33.838,378.306 33.928,378.292 33.983 C 378.141 34.596,378.761 34.994,379.875 34.998 C 380.421 35.000,380.500 35.050,380.500 35.396 C 380.500 35.860,380.759 36.112,381.318 36.192 C 381.553 36.226,381.738 36.377,381.764 36.555 C 381.849 37.149,381.994 37.333,382.377 37.333 C 382.670 37.333,382.803 37.465,382.924 37.875 C 383.047 38.293,383.188 38.429,383.542 38.469 C 383.909 38.512,384.000 38.607,384.000 38.950 C 384.000 39.219,384.207 39.573,384.559 39.904 C 384.893 40.220,385.179 40.695,385.271 41.090 C 385.398 41.635,385.519 41.778,385.962 41.909 C 386.404 42.040,386.500 42.153,386.500 42.540 C 386.500 43.007,386.611 43.105,387.250 43.200 C 387.444 43.229,387.659 43.458,387.763 43.746 C 388.007 44.416,388.465 44.497,391.917 44.483 C 395.453 44.468,395.655 44.433,395.779 43.812 C 395.842 43.498,395.978 43.333,396.174 43.333 C 396.759 43.333,397.000 43.134,397.000 42.649 C 397.000 42.228,397.061 42.167,397.482 42.167 C 397.981 42.167,398.164 41.931,398.170 41.278 C 398.173 41.035,398.351 40.835,398.712 40.667 L 399.250 40.417 399.299 38.000 C 399.361 34.989,399.304 34.653,398.666 34.276 C 398.232 34.020,398.167 33.885,398.167 33.251 C 398.167 32.185,397.926 31.667,397.431 31.667 C 397.077 31.667,397.013 31.581,396.968 31.042 C 396.923 30.496,396.855 30.408,396.421 30.333 C 395.989 30.259,395.910 30.158,395.806 29.549 C 395.645 28.602,395.387 28.167,394.990 28.167 C 394.796 28.167,394.597 28.005,394.510 27.776 C 394.289 27.196,393.862 26.833,393.400 26.833 C 393.174 26.833,392.947 26.721,392.894 26.584 C 392.841 26.447,392.713 26.384,392.608 26.444 C 392.503 26.504,392.474 26.491,392.543 26.414 C 392.759 26.176,391.974 25.500,391.482 25.500 C 391.106 25.500,391.013 25.418,390.969 25.048 C 390.919 24.615,390.484 24.387,389.542 24.298 C 389.427 24.287,389.333 24.184,389.333 24.069 C 389.333 23.642,388.248 23.167,387.272 23.167 C 386.350 23.167,386.333 23.158,386.333 22.688 C 386.333 22.171,385.885 22.006,384.470 22.002 C 383.994 22.000,383.831 21.921,383.745 21.651 C 383.537 20.996,382.727 20.833,379.668 20.833 L 376.825 20.833 376.666 20.414 C 376.424 19.778,375.880 19.667,373.015 19.667 C 370.679 19.667,370.354 19.701,370.109 19.971 M123.031 33.118 C 123.091 33.635,123.465 33.791,124.708 33.817 C 125.380 33.831,125.500 33.883,125.500 34.162 C 125.500 34.578,126.289 35.000,127.064 35.000 C 127.598 35.000,127.650 35.044,127.698 35.542 C 127.743 36.010,127.819 36.090,128.259 36.133 C 128.671 36.173,128.799 36.286,128.926 36.716 C 129.047 37.126,129.190 37.262,129.542 37.303 C 129.877 37.341,130.000 37.448,130.000 37.700 C 130.000 38.419,130.398 39.366,130.757 39.503 C 131.048 39.613,131.139 39.826,131.231 40.601 C 131.360 41.702,131.546 42.000,132.104 42.000 L 132.500 42.000 132.500 44.975 C 132.500 48.179,132.622 48.850,133.258 49.140 C 133.898 49.431,133.848 50.636,133.177 51.133 C 132.608 51.553,132.653 51.280,132.558 54.958 C 132.489 57.662,132.466 57.833,132.163 57.833 C 131.689 57.833,131.167 59.096,131.167 60.241 C 131.167 61.114,131.143 61.167,130.756 61.167 C 130.320 61.167,130.000 61.581,130.000 62.145 C 130.000 62.384,129.871 62.493,129.542 62.531 C 129.176 62.573,129.072 62.680,129.029 63.061 C 128.989 63.410,128.844 63.588,128.493 63.720 C 128.229 63.820,127.932 64.096,127.834 64.333 C 127.732 64.579,127.509 64.774,127.314 64.789 C 126.869 64.822,126.500 65.137,126.500 65.482 C 126.500 65.686,126.239 65.807,125.484 65.950 C 124.313 66.173,124.360 66.145,124.279 66.677 L 124.217 67.083 119.983 67.083 L 115.750 67.083 115.697 66.667 C 115.619 66.061,115.218 65.833,114.229 65.833 C 113.400 65.833,113.353 65.810,113.303 65.375 C 113.262 65.023,113.126 64.880,112.716 64.759 C 112.325 64.644,112.169 64.491,112.133 64.186 C 112.097 63.880,111.949 63.735,111.577 63.639 C 111.198 63.542,111.031 63.372,110.911 62.963 C 110.786 62.540,110.646 62.405,110.292 62.364 C 109.876 62.316,109.832 62.246,109.817 61.614 C 109.789 60.464,109.624 60.090,109.118 60.031 C 108.692 59.981,108.667 59.929,108.665 59.114 C 108.662 57.566,108.496 56.982,107.976 56.686 L 107.502 56.417 107.501 50.136 C 107.500 44.104,107.513 43.852,107.818 43.755 C 108.249 43.618,108.667 42.507,108.667 41.497 C 108.667 41.018,108.742 40.667,108.845 40.667 C 109.191 40.667,109.516 40.167,109.715 39.331 C 109.869 38.682,110.003 38.464,110.289 38.392 C 110.550 38.327,110.716 38.103,110.836 37.656 C 110.931 37.303,111.083 36.968,111.174 36.912 C 111.265 36.856,111.299 36.746,111.250 36.667 C 111.201 36.588,111.249 36.469,111.356 36.402 C 111.486 36.322,111.511 36.361,111.430 36.516 C 111.363 36.645,111.416 36.619,111.548 36.458 C 111.679 36.298,111.840 36.167,111.905 36.167 C 111.969 36.167,112.270 35.904,112.573 35.583 C 112.969 35.163,113.266 35.000,113.634 35.000 C 114.063 35.000,114.178 34.910,114.349 34.437 C 114.546 33.891,114.585 33.872,115.651 33.779 C 117.276 33.638,117.833 33.400,117.833 32.845 C 117.833 32.726,118.688 32.667,120.406 32.667 L 122.978 32.667 123.031 33.118 M310.836 33.088 C 310.960 33.319,311.216 33.545,311.406 33.589 C 312.093 33.748,312.598 33.809,313.339 33.821 C 314.035 33.832,314.097 33.868,314.131 34.282 C 314.173 34.789,314.410 34.994,314.958 34.997 C 315.207 34.999,315.333 35.101,315.333 35.300 C 315.333 35.682,315.649 36.000,316.027 36.000 C 316.332 36.000,316.731 36.547,316.555 36.723 C 316.500 36.778,316.686 36.956,316.969 37.118 C 317.252 37.281,317.531 37.601,317.589 37.830 C 317.711 38.318,317.940 38.494,318.458 38.497 C 318.803 38.500,318.834 38.577,318.836 39.458 C 318.839 40.595,318.953 40.819,319.551 40.869 L 320.000 40.906 320.000 42.524 L 320.000 44.143 320.583 44.761 L 321.167 45.380 321.167 50.273 C 321.167 55.008,321.156 55.167,320.843 55.167 C 320.238 55.167,320.000 55.791,320.000 57.375 L 320.000 58.842 319.517 58.938 C 319.002 59.041,318.833 59.452,318.833 60.604 C 318.833 61.076,318.773 61.167,318.458 61.169 C 317.815 61.174,317.621 61.416,317.512 62.357 C 317.506 62.416,317.314 62.511,317.086 62.568 C 316.825 62.633,316.632 62.831,316.564 63.102 C 316.495 63.375,316.280 63.594,315.977 63.700 C 315.687 63.801,315.458 64.025,315.398 64.267 C 315.330 64.537,315.128 64.710,314.774 64.801 C 314.372 64.905,314.238 65.040,314.197 65.385 C 314.149 65.795,314.083 65.833,313.416 65.833 C 312.327 65.833,311.844 66.073,311.723 66.675 L 311.621 67.189 308.726 67.136 C 306.905 67.103,305.848 67.022,305.874 66.917 C 305.898 66.825,305.988 66.774,306.076 66.803 C 306.163 66.832,306.034 66.655,305.788 66.409 C 305.422 66.043,305.144 65.946,304.254 65.875 C 303.378 65.805,303.167 65.733,303.167 65.505 C 303.167 65.350,302.998 65.145,302.792 65.049 C 301.818 64.597,301.403 64.445,301.250 64.485 C 301.158 64.508,301.132 64.479,301.191 64.420 C 301.372 64.239,300.526 63.456,300.127 63.436 C 299.871 63.423,299.744 63.307,299.733 63.077 C 299.704 62.516,299.157 61.519,298.817 61.412 C 298.591 61.340,298.500 61.155,298.500 60.770 C 298.500 60.364,298.377 60.138,298.005 59.863 C 297.580 59.549,297.523 59.539,297.604 59.790 C 297.674 60.008,297.657 60.026,297.540 59.862 C 297.453 59.741,297.366 59.072,297.348 58.375 C 297.309 56.901,297.144 56.500,296.577 56.500 L 296.167 56.500 296.167 50.417 C 296.167 44.504,296.176 44.333,296.491 44.333 C 297.079 44.333,297.333 43.704,297.333 42.248 C 297.333 41.007,297.360 40.902,297.680 40.878 C 298.313 40.830,298.500 40.514,298.500 39.490 L 298.500 38.521 299.042 38.469 C 299.518 38.423,299.590 38.351,299.636 37.875 C 299.677 37.441,299.762 37.333,300.061 37.333 C 300.539 37.333,300.833 37.035,300.833 36.550 C 300.833 36.261,300.928 36.167,301.217 36.167 C 301.705 36.167,302.000 35.872,302.000 35.383 C 302.000 35.089,302.094 35.000,302.403 35.000 C 302.971 35.000,303.333 34.835,303.333 34.577 C 303.333 34.455,303.483 34.308,303.667 34.250 C 303.850 34.192,304.000 34.083,304.000 34.008 C 304.000 33.934,304.572 33.819,305.271 33.753 C 306.475 33.641,306.551 33.609,306.724 33.151 L 306.906 32.667 308.758 32.667 C 310.569 32.667,310.615 32.676,310.836 33.088 M251.167 55.913 L 251.167 60.160 250.738 60.268 C 250.242 60.392,250.000 60.909,250.000 61.844 C 250.000 62.430,249.956 62.500,249.590 62.500 C 249.249 62.500,249.131 62.640,248.884 63.333 C 248.722 63.792,248.527 64.167,248.451 64.167 C 248.375 64.167,248.361 64.244,248.419 64.337 C 248.477 64.431,248.463 64.488,248.387 64.462 C 248.172 64.391,246.667 65.394,246.667 65.610 C 246.667 65.717,246.367 65.855,246.000 65.917 C 245.506 66.000,245.328 66.112,245.313 66.348 C 245.301 66.523,245.282 66.760,245.271 66.875 C 245.257 67.010,244.898 67.101,244.256 67.134 C 243.137 67.192,242.833 67.363,242.833 67.937 L 242.833 68.333 238.583 68.333 L 234.333 68.333 234.333 67.950 C 234.333 67.351,234.011 67.167,232.967 67.167 C 232.019 67.167,232.000 67.157,232.000 66.700 C 232.000 66.133,231.729 65.833,231.217 65.833 C 230.873 65.833,230.833 65.755,230.833 65.072 C 230.833 64.101,230.600 63.667,230.077 63.667 C 229.486 63.667,229.434 60.849,230.018 60.439 C 230.211 60.304,230.325 60.121,230.270 60.032 C 230.215 59.944,230.320 59.832,230.502 59.785 C 230.743 59.721,230.833 59.557,230.833 59.178 C 230.833 58.738,230.907 58.644,231.316 58.562 C 231.678 58.489,231.822 58.348,231.893 57.994 C 231.970 57.606,232.085 57.513,232.535 57.469 C 233.019 57.423,233.089 57.353,233.136 56.875 L 233.188 56.333 234.266 56.333 C 235.579 56.333,236.500 55.993,236.500 55.509 C 236.500 55.183,236.595 55.167,238.492 55.167 C 240.659 55.167,241.253 55.010,241.407 54.396 C 241.503 54.014,241.564 54.000,243.128 53.990 C 245.510 53.976,246.071 53.849,246.134 53.306 L 246.186 52.866 248.317 52.808 C 250.545 52.747,251.000 52.607,251.000 51.980 C 251.000 51.807,251.037 51.667,251.083 51.667 C 251.129 51.667,251.167 53.578,251.167 55.913 " stroke="none" fill="#99cc00" fill-rule="evenodd"></path><path id="path3" d="M22.270 2.134 C 22.218 2.219,22.315 2.416,22.487 2.572 C 22.659 2.728,22.843 2.785,22.896 2.700 C 22.949 2.614,22.851 2.417,22.679 2.261 C 22.507 2.106,22.323 2.048,22.270 2.134 M49.710 4.708 C 49.449 5.039,49.517 5.483,49.811 5.370 C 49.981 5.305,50.000 5.250,49.867 5.206 C 49.601 5.117,49.608 4.830,49.875 4.895 C 49.990 4.923,50.027 4.914,49.957 4.875 C 49.888 4.836,49.874 4.736,49.925 4.652 C 50.066 4.425,49.899 4.468,49.710 4.708 M74.581 5.836 C 74.518 5.939,74.512 6.067,74.567 6.122 C 74.622 6.177,74.667 6.130,74.667 6.018 C 74.667 5.906,74.743 5.861,74.836 5.918 C 74.929 5.976,74.962 6.093,74.910 6.178 C 74.857 6.264,74.893 6.333,74.990 6.333 C 75.240 6.333,75.209 6.076,74.932 5.846 C 74.760 5.703,74.665 5.701,74.581 5.836 M304.333 21.000 C 304.140 21.125,304.134 21.162,304.310 21.164 C 304.445 21.166,304.377 21.296,304.143 21.486 C 303.927 21.661,303.801 21.856,303.864 21.919 C 304.036 22.091,304.307 21.869,304.589 21.323 C 304.849 20.819,304.770 20.718,304.333 21.000 M363.167 20.982 C 363.167 21.094,363.104 21.148,363.028 21.101 C 362.951 21.053,362.889 21.124,362.889 21.257 C 362.889 21.391,362.954 21.500,363.033 21.500 C 363.220 21.500,363.406 21.017,363.271 20.882 C 363.213 20.825,363.167 20.870,363.167 20.982 M200.713 21.331 C 200.700 21.501,200.797 21.681,200.928 21.731 C 201.059 21.782,201.167 21.750,201.167 21.661 C 201.167 21.573,201.087 21.500,200.990 21.500 C 200.893 21.500,200.857 21.430,200.910 21.345 C 200.962 21.260,200.945 21.152,200.871 21.106 C 200.797 21.061,200.725 21.162,200.713 21.331 M254.743 21.178 C 254.683 21.276,254.678 21.401,254.733 21.456 C 254.788 21.511,254.833 21.468,254.833 21.361 C 254.833 21.254,254.906 21.167,254.995 21.167 C 255.084 21.167,255.133 21.260,255.105 21.375 C 255.077 21.490,255.086 21.527,255.125 21.457 C 255.164 21.388,255.282 21.384,255.389 21.448 C 255.496 21.512,255.480 21.437,255.355 21.282 C 255.091 20.957,254.900 20.925,254.743 21.178 M104.500 23.510 C 104.500 23.607,104.413 23.633,104.308 23.567 C 104.186 23.492,104.161 23.522,104.239 23.649 C 104.326 23.790,104.425 23.798,104.572 23.676 C 104.687 23.581,104.842 23.558,104.917 23.626 C 104.992 23.694,104.999 23.656,104.934 23.542 C 104.787 23.288,104.500 23.267,104.500 23.510 M388.900 23.542 C 388.834 23.656,388.841 23.694,388.916 23.626 C 388.991 23.558,389.147 23.581,389.261 23.676 C 389.408 23.798,389.507 23.790,389.594 23.649 C 389.673 23.522,389.648 23.492,389.526 23.567 C 389.420 23.633,389.333 23.607,389.333 23.510 C 389.333 23.267,389.046 23.288,388.900 23.542 M325.973 23.798 C 326.095 23.884,326.183 24.019,326.168 24.098 C 326.154 24.177,326.241 24.268,326.362 24.300 C 326.543 24.348,326.543 24.330,326.361 24.202 C 326.238 24.116,326.150 23.981,326.165 23.902 C 326.180 23.823,326.092 23.732,325.971 23.700 C 325.790 23.652,325.790 23.670,325.973 23.798 M30.692 24.825 C 30.763 25.040,30.992 25.078,31.012 24.879 C 31.019 24.813,30.935 24.728,30.825 24.692 C 30.715 24.655,30.655 24.715,30.692 24.825 M44.207 24.740 C 44.275 24.820,44.252 24.980,44.157 25.095 C 44.052 25.221,44.045 25.342,44.140 25.400 C 44.465 25.601,44.687 25.057,44.377 24.819 C 44.216 24.696,44.139 24.660,44.207 24.740 M392.405 25.871 C 392.430 25.988,392.582 26.060,392.742 26.031 C 392.936 25.995,392.991 26.046,392.908 26.181 C 392.827 26.312,392.851 26.342,392.977 26.264 C 393.233 26.106,393.031 25.786,392.744 25.896 C 392.622 25.943,392.485 25.909,392.440 25.820 C 392.395 25.731,392.379 25.754,392.405 25.871 M100.727 25.944 C 100.786 26.051,100.741 26.173,100.626 26.215 C 100.463 26.275,100.468 26.343,100.649 26.521 C 100.777 26.647,100.833 26.663,100.773 26.556 C 100.714 26.449,100.759 26.327,100.874 26.285 C 101.037 26.225,101.032 26.157,100.851 25.979 C 100.723 25.853,100.667 25.837,100.727 25.944 M394.167 27.054 C 394.167 27.188,394.279 27.341,394.417 27.394 C 394.554 27.446,394.667 27.449,394.667 27.400 C 394.667 27.350,394.554 27.197,394.417 27.060 C 394.200 26.843,394.167 26.842,394.167 27.054 M218.522 28.724 C 218.420 28.847,218.385 28.996,218.444 29.056 C 218.570 29.181,219.000 28.863,219.000 28.646 C 219.000 28.427,218.732 28.470,218.522 28.724 M332.597 30.145 C 332.533 30.249,332.560 30.333,332.657 30.333 C 332.754 30.333,332.839 30.465,332.846 30.625 C 332.854 30.789,332.896 30.828,332.942 30.715 C 333.059 30.424,332.745 29.905,332.597 30.145 M217.167 30.482 C 217.167 30.594,217.104 30.648,217.028 30.601 C 216.951 30.553,216.889 30.624,216.889 30.757 C 216.889 30.891,216.954 31.000,217.033 31.000 C 217.220 31.000,217.406 30.517,217.271 30.382 C 217.213 30.325,217.167 30.370,217.167 30.482 M96.083 30.667 C 96.140 30.758,96.102 30.833,96.000 30.833 C 95.898 30.833,95.860 30.908,95.917 31.000 C 95.973 31.092,95.940 31.167,95.843 31.167 C 95.746 31.167,95.667 31.277,95.667 31.411 C 95.667 31.702,96.107 31.578,96.119 31.284 C 96.123 31.174,96.181 30.952,96.248 30.792 C 96.323 30.611,96.295 30.500,96.175 30.500 C 96.068 30.500,96.027 30.575,96.083 30.667 M144.692 31.825 C 144.728 31.935,144.813 32.019,144.879 32.012 C 145.078 31.992,145.040 31.763,144.825 31.692 C 144.715 31.655,144.655 31.715,144.692 31.825 M241.211 32.620 C 241.464 32.658,241.839 32.657,242.044 32.617 C 242.249 32.578,242.042 32.546,241.583 32.548 C 241.125 32.549,240.957 32.581,241.211 32.620 M248.985 34.270 C 249.078 34.464,249.101 34.682,249.036 34.755 C 248.970 34.827,249.004 34.837,249.111 34.776 C 249.218 34.715,249.343 34.759,249.389 34.874 C 249.443 35.008,249.478 35.015,249.487 34.893 C 249.494 34.789,249.346 34.527,249.157 34.310 C 248.850 33.958,248.832 33.954,248.985 34.270 M303.772 34.458 C 303.800 34.573,303.756 34.667,303.675 34.667 C 303.594 34.667,303.490 34.573,303.444 34.458 C 303.383 34.308,303.356 34.305,303.346 34.448 C 303.323 34.803,303.692 34.880,303.974 34.580 C 304.126 34.418,304.163 34.335,304.056 34.394 C 303.949 34.454,303.830 34.445,303.792 34.376 C 303.753 34.307,303.744 34.344,303.772 34.458 M57.125 35.827 C 56.893 36.053,56.883 36.111,57.076 36.111 C 57.210 36.111,57.361 36.000,57.413 35.865 C 57.549 35.513,57.460 35.501,57.125 35.827 M112.667 35.770 C 112.667 35.992,112.712 36.003,112.917 35.833 C 113.054 35.719,113.167 35.598,113.167 35.563 C 113.167 35.528,113.054 35.500,112.917 35.500 C 112.779 35.500,112.667 35.622,112.667 35.770 M250.262 36.647 C 250.207 36.737,250.237 36.857,250.331 36.915 C 250.424 36.973,250.501 36.959,250.503 36.885 C 250.504 36.811,250.578 36.862,250.667 37.000 C 250.756 37.137,250.829 37.165,250.831 37.062 C 250.835 36.781,250.383 36.451,250.262 36.647 M244.432 42.650 C 244.118 42.997,244.288 43.236,244.675 42.992 C 244.855 42.877,244.861 42.838,244.698 42.836 C 244.579 42.834,244.527 42.757,244.585 42.664 C 244.643 42.571,244.771 42.545,244.871 42.606 C 244.979 42.673,245.004 42.641,244.933 42.526 C 244.778 42.276,244.768 42.278,244.432 42.650 M336.639 42.813 C 336.762 42.890,336.855 43.002,336.848 43.060 C 336.810 43.338,336.850 43.360,337.067 43.180 C 337.229 43.046,337.328 43.041,337.388 43.164 C 337.436 43.262,337.456 43.246,337.432 43.129 C 337.408 43.012,337.308 42.917,337.208 42.917 C 337.109 42.917,336.972 42.860,336.903 42.792 C 336.834 42.723,336.697 42.668,336.597 42.669 C 336.498 42.671,336.517 42.735,336.639 42.813 M108.239 43.483 C 108.290 43.565,108.215 43.677,108.072 43.731 C 107.929 43.786,107.859 43.907,107.916 43.999 C 107.973 44.091,107.946 44.167,107.857 44.167 C 107.768 44.167,107.657 44.073,107.610 43.958 C 107.550 43.808,107.523 43.805,107.513 43.948 C 107.487 44.345,107.892 44.380,108.194 44.008 C 108.538 43.583,108.586 43.333,108.323 43.333 C 108.226 43.333,108.188 43.400,108.239 43.483 M296.927 44.155 C 296.649 44.463,296.650 44.473,296.957 44.393 C 297.133 44.347,297.278 44.202,297.278 44.071 C 297.278 43.770,297.275 43.770,296.927 44.155 M344.559 44.961 C 344.620 45.059,344.500 45.279,344.293 45.449 C 344.086 45.619,343.897 45.869,343.873 46.004 C 343.845 46.157,343.948 46.110,344.144 45.882 C 344.317 45.680,344.505 45.548,344.563 45.590 C 344.620 45.632,344.630 45.617,344.585 45.557 C 344.540 45.497,344.581 45.353,344.676 45.239 C 344.798 45.092,344.790 44.993,344.649 44.906 C 344.527 44.830,344.492 44.852,344.559 44.961 M37.918 47.331 C 37.861 47.424,37.874 47.501,37.948 47.503 C 38.023 47.504,37.971 47.578,37.833 47.667 C 37.696 47.756,37.668 47.829,37.771 47.831 C 38.052 47.835,38.382 47.383,38.186 47.262 C 38.096 47.207,37.976 47.237,37.918 47.331 M149.599 47.307 C 149.542 47.401,149.576 47.527,149.675 47.589 C 149.931 47.747,150.097 47.530,149.883 47.316 C 149.763 47.196,149.670 47.193,149.599 47.307 M219.512 49.735 C 219.313 49.976,219.571 50.317,219.789 50.100 C 219.844 50.045,219.797 50.000,219.685 50.000 C 219.572 50.000,219.527 49.924,219.585 49.831 C 219.643 49.737,219.760 49.704,219.845 49.757 C 219.930 49.810,220.000 49.774,220.000 49.677 C 220.000 49.427,219.743 49.458,219.512 49.735 M218.250 50.731 C 217.936 51.105,217.943 51.451,218.258 51.141 C 218.413 50.990,218.511 50.791,218.478 50.699 C 218.440 50.598,218.352 50.610,218.250 50.731 M132.750 50.833 C 132.693 50.925,132.708 51.001,132.782 51.003 C 132.856 51.004,132.804 51.078,132.667 51.167 C 132.453 51.305,132.459 51.329,132.708 51.331 C 132.869 51.332,133.000 51.302,133.000 51.264 C 133.000 51.225,133.046 51.075,133.101 50.930 C 133.211 50.643,132.918 50.562,132.750 50.833 M395.240 54.255 C 395.418 54.390,395.639 54.500,395.730 54.500 C 395.822 54.500,395.751 54.390,395.574 54.255 C 395.396 54.121,395.175 54.011,395.083 54.011 C 394.992 54.011,395.062 54.121,395.240 54.255 M52.587 54.487 C 52.527 54.678,52.403 54.833,52.312 54.833 C 52.221 54.833,52.200 54.919,52.265 55.024 C 52.340 55.145,52.469 55.049,52.621 54.759 C 52.752 54.509,52.823 54.267,52.778 54.223 C 52.734 54.178,52.648 54.297,52.587 54.487 M343.907 55.516 C 343.845 55.616,343.906 55.811,344.044 55.949 C 344.239 56.143,344.322 56.153,344.423 55.990 C 344.501 55.863,344.484 55.824,344.377 55.890 C 344.280 55.949,344.160 55.891,344.110 55.760 C 344.060 55.629,344.108 55.485,344.218 55.441 C 344.371 55.378,344.371 55.357,344.218 55.346 C 344.109 55.339,343.969 55.416,343.907 55.516 M387.762 55.611 C 387.716 55.733,387.741 55.833,387.818 55.833 C 387.896 55.833,388.042 55.733,388.144 55.611 C 388.283 55.443,388.269 55.389,388.088 55.389 C 387.956 55.389,387.809 55.489,387.762 55.611 M397.333 55.573 C 397.333 55.708,397.475 55.802,397.658 55.788 C 397.904 55.770,397.939 55.711,397.804 55.549 C 397.567 55.263,397.333 55.275,397.333 55.573 M387.000 56.649 C 387.000 56.761,386.913 56.799,386.808 56.734 C 386.694 56.664,386.660 56.688,386.725 56.793 C 386.786 56.891,386.741 57.010,386.626 57.056 C 386.496 57.109,386.488 57.145,386.605 57.154 C 386.847 57.171,387.247 56.692,387.107 56.552 C 387.048 56.493,387.000 56.536,387.000 56.649 M398.601 56.862 C 398.682 56.993,398.630 57.022,398.440 56.949 C 398.208 56.860,398.188 56.895,398.325 57.151 C 398.542 57.557,399.024 57.757,398.880 57.381 C 398.804 57.182,398.838 57.148,399.013 57.251 C 399.144 57.328,399.107 57.228,398.933 57.029 C 398.590 56.638,398.405 56.545,398.601 56.862 M91.064 57.865 C 90.996 57.974,91.030 58.093,91.138 58.129 C 91.247 58.166,91.286 58.275,91.225 58.373 C 91.159 58.481,91.194 58.503,91.316 58.428 C 91.456 58.341,91.465 58.241,91.343 58.095 C 91.248 57.980,91.219 57.837,91.279 57.776 C 91.340 57.716,91.343 57.667,91.288 57.667 C 91.232 57.667,91.131 57.756,91.064 57.865 M214.000 58.981 C 214.000 59.063,213.869 59.119,213.708 59.106 C 213.548 59.094,213.417 59.196,213.417 59.333 C 213.417 59.471,213.342 59.636,213.251 59.701 C 213.146 59.777,213.161 59.883,213.292 59.994 C 213.405 60.091,213.459 60.118,213.412 60.054 C 213.366 59.991,213.569 59.690,213.863 59.386 C 214.158 59.082,214.309 58.833,214.199 58.833 C 214.090 58.833,214.000 58.900,214.000 58.981 M297.391 59.361 C 297.421 59.560,297.577 59.742,297.737 59.765 C 298.005 59.805,298.007 59.784,297.764 59.516 C 297.618 59.355,297.549 59.173,297.611 59.111 C 297.672 59.050,297.635 59.000,297.529 59.000 C 297.422 59.000,297.360 59.163,297.391 59.361 M230.402 60.125 C 230.573 60.429,230.331 60.764,230.148 60.476 C 230.053 60.325,230.004 60.316,230.003 60.448 C 229.998 60.776,230.281 60.847,230.507 60.574 C 230.679 60.368,230.678 60.281,230.502 60.118 C 230.331 59.960,230.310 59.962,230.402 60.125 M345.198 61.677 C 345.238 61.797,345.369 61.929,345.490 61.969 C 345.615 62.010,345.677 61.948,345.635 61.823 C 345.595 61.703,345.464 61.571,345.344 61.531 C 345.219 61.490,345.156 61.552,345.198 61.677 M299.747 63.004 C 299.689 63.098,299.741 63.154,299.863 63.129 C 299.984 63.104,300.069 63.165,300.051 63.264 C 300.033 63.363,300.127 63.444,300.260 63.444 C 300.458 63.444,300.452 63.390,300.225 63.139 C 299.903 62.783,299.887 62.779,299.747 63.004 M247.911 64.008 C 247.753 64.265,247.970 64.430,248.184 64.216 C 248.304 64.096,248.307 64.003,248.193 63.933 C 248.099 63.875,247.973 63.909,247.911 64.008 M268.219 63.944 C 268.283 64.051,268.279 64.170,268.209 64.208 C 268.140 64.247,268.172 64.258,268.281 64.232 C 268.390 64.206,268.515 64.275,268.559 64.384 C 268.614 64.519,268.645 64.523,268.654 64.395 C 268.661 64.292,268.540 64.105,268.385 63.979 C 268.230 63.853,268.155 63.837,268.219 63.944 M301.583 64.207 C 301.598 64.403,301.699 64.582,301.809 64.603 C 301.919 64.624,301.936 64.605,301.847 64.560 C 301.758 64.515,301.724 64.378,301.771 64.256 C 301.818 64.134,301.789 63.992,301.706 63.941 C 301.624 63.890,301.569 64.010,301.583 64.207 M334.741 65.181 C 334.679 65.281,334.713 65.446,334.815 65.548 C 334.917 65.650,335.006 65.700,335.013 65.658 C 335.020 65.617,335.051 65.452,335.081 65.292 C 335.143 64.970,334.917 64.896,334.741 65.181 M377.276 66.305 C 376.923 66.695,376.927 66.837,377.292 66.820 C 377.468 66.812,377.500 66.774,377.374 66.723 C 377.259 66.676,377.205 66.573,377.254 66.493 C 377.304 66.413,377.454 66.390,377.589 66.442 C 377.741 66.500,377.833 66.435,377.833 66.268 C 377.833 65.914,377.616 65.929,377.276 66.305 M213.418 66.331 C 213.361 66.424,213.398 66.500,213.500 66.500 C 213.602 66.500,213.640 66.575,213.583 66.667 C 213.527 66.758,213.560 66.833,213.657 66.833 C 213.874 66.833,213.891 66.389,213.678 66.257 C 213.593 66.204,213.476 66.237,213.418 66.331 M306.054 66.276 C 306.114 66.337,306.086 66.480,305.990 66.595 C 305.809 66.814,306.090 67.133,306.289 66.933 C 306.344 66.878,306.297 66.833,306.185 66.833 C 306.072 66.833,306.027 66.757,306.085 66.664 C 306.143 66.571,306.278 66.548,306.387 66.613 C 306.499 66.680,306.485 66.609,306.355 66.449 C 306.229 66.294,306.085 66.167,306.035 66.167 C 305.985 66.167,305.994 66.216,306.054 66.276 M95.127 67.365 C 95.334 67.591,95.446 67.837,95.377 67.914 C 95.307 67.991,95.340 68.002,95.451 67.938 C 95.719 67.784,95.578 67.461,95.122 67.183 L 94.750 66.956 95.127 67.365 M25.793 68.777 C 25.908 68.824,25.953 68.942,25.892 69.040 C 25.829 69.141,25.860 69.170,25.963 69.106 C 26.062 69.045,26.191 69.071,26.248 69.164 C 26.306 69.257,26.434 69.333,26.532 69.333 C 26.631 69.333,26.521 69.183,26.288 69.000 C 26.055 68.817,25.801 68.673,25.724 68.680 C 25.647 68.687,25.678 68.731,25.793 68.777 M143.540 69.444 C 143.424 69.491,143.251 69.691,143.156 69.890 C 142.998 70.216,143.004 70.222,143.216 69.961 C 143.506 69.602,143.741 69.785,143.460 70.151 C 143.335 70.314,143.400 70.294,143.628 70.099 C 144.025 69.760,144.128 69.568,143.805 69.768 C 143.674 69.849,143.645 69.797,143.716 69.611 C 143.775 69.458,143.806 69.339,143.786 69.346 C 143.766 69.354,143.655 69.398,143.540 69.444 M331.997 69.587 C 331.735 69.903,331.910 70.116,332.220 69.859 C 332.345 69.755,332.513 69.725,332.593 69.793 C 332.673 69.861,332.639 69.785,332.516 69.625 C 332.245 69.272,332.258 69.273,331.997 69.587 M215.734 72.526 C 215.660 72.645,215.688 72.673,215.808 72.599 C 215.913 72.534,216.000 72.564,216.000 72.667 C 216.000 72.769,216.076 72.806,216.169 72.748 C 216.356 72.633,216.233 72.333,216.000 72.333 C 215.919 72.333,215.799 72.420,215.734 72.526 M47.716 73.105 C 47.774 73.163,47.745 73.369,47.652 73.564 C 47.486 73.907,47.489 73.908,47.741 73.593 C 48.049 73.208,48.072 73.000,47.806 73.000 C 47.699 73.000,47.658 73.047,47.716 73.105 M158.759 74.652 C 158.697 74.752,158.731 74.833,158.833 74.833 C 158.936 74.833,158.967 74.927,158.902 75.042 C 158.808 75.208,158.829 75.208,159.009 75.042 C 159.171 74.892,159.183 74.783,159.052 74.652 C 158.922 74.522,158.840 74.522,158.759 74.652 M255.167 75.480 C 255.167 75.697,255.597 76.014,255.722 75.889 C 255.847 75.764,255.530 75.333,255.313 75.333 C 255.232 75.333,255.167 75.399,255.167 75.480 M390.110 75.613 C 389.933 75.789,389.982 75.958,390.238 76.056 C 390.369 76.106,390.572 76.020,390.691 75.865 C 390.809 75.710,390.840 75.639,390.760 75.707 C 390.680 75.775,390.525 75.757,390.417 75.667 C 390.308 75.577,390.170 75.552,390.110 75.613 M355.667 75.813 C 355.667 76.021,356.095 76.350,356.212 76.232 C 356.373 76.071,356.149 75.667,355.899 75.667 C 355.771 75.667,355.667 75.732,355.667 75.813 M326.426 76.222 C 326.206 76.384,326.188 76.444,326.360 76.444 C 326.491 76.444,326.691 76.344,326.806 76.222 C 326.920 76.100,326.950 76.000,326.872 76.000 C 326.794 76.000,326.594 76.100,326.426 76.222 M105.793 76.865 C 106.000 77.091,106.113 77.337,106.043 77.414 C 105.974 77.491,106.007 77.502,106.118 77.438 C 106.386 77.284,106.245 76.961,105.788 76.683 L 105.417 76.456 105.793 76.865 M358.000 76.639 C 358.000 76.715,358.056 76.834,358.125 76.903 C 358.194 76.972,358.252 77.115,358.254 77.222 C 358.256 77.329,358.387 77.406,358.546 77.394 C 358.704 77.381,358.833 77.437,358.833 77.519 C 358.833 77.600,358.927 77.664,359.042 77.662 C 359.156 77.659,359.012 77.441,358.722 77.176 C 358.431 76.912,358.237 76.651,358.291 76.598 C 358.345 76.544,358.301 76.500,358.194 76.500 C 358.087 76.500,358.000 76.563,358.000 76.639 M387.861 76.843 C 387.537 77.145,387.497 77.500,387.788 77.500 C 387.843 77.500,387.838 77.449,387.776 77.387 C 387.714 77.325,387.827 77.100,388.028 76.887 C 388.478 76.408,388.361 76.377,387.861 76.843 M220.595 76.980 C 220.540 77.070,220.571 77.191,220.664 77.248 C 220.757 77.306,220.834 77.292,220.836 77.218 C 220.837 77.144,220.911 77.196,221.000 77.333 C 221.089 77.471,221.163 77.499,221.164 77.395 C 221.168 77.114,220.716 76.785,220.595 76.980 M300.095 76.980 C 300.040 77.070,300.071 77.191,300.164 77.248 C 300.257 77.306,300.334 77.292,300.336 77.218 C 300.337 77.144,300.411 77.196,300.500 77.333 C 300.589 77.471,300.663 77.499,300.664 77.395 C 300.668 77.114,300.216 76.785,300.095 76.980 M45.012 78.235 C 44.889 78.383,44.878 78.508,44.980 78.571 C 45.070 78.627,45.191 78.596,45.248 78.503 C 45.306 78.410,45.292 78.332,45.218 78.331 C 45.144 78.329,45.196 78.256,45.333 78.167 C 45.471 78.078,45.499 78.004,45.395 78.003 C 45.292 78.001,45.120 78.106,45.012 78.235 M60.192 78.325 C 60.228 78.435,60.313 78.519,60.379 78.512 C 60.578 78.492,60.540 78.263,60.325 78.192 C 60.215 78.155,60.155 78.215,60.192 78.325 M223.093 78.578 C 223.480 78.871,223.667 78.896,223.667 78.657 C 223.667 78.560,223.597 78.523,223.512 78.576 C 223.426 78.629,223.309 78.596,223.252 78.503 C 223.194 78.410,223.062 78.333,222.958 78.333 C 222.855 78.333,222.915 78.443,223.093 78.578 M365.493 79.098 C 365.359 79.263,365.336 79.346,365.441 79.283 C 365.547 79.220,365.809 79.354,366.025 79.581 C 366.421 79.999,366.826 80.176,366.507 79.792 C 366.411 79.677,366.199 79.407,366.035 79.191 C 365.750 78.818,365.724 78.814,365.493 79.098 M239.558 79.591 C 239.503 79.732,239.504 79.893,239.559 79.948 C 239.677 80.066,240.167 79.690,240.167 79.480 C 240.167 79.228,239.661 79.320,239.558 79.591 M283.400 79.708 C 283.334 79.823,283.339 79.863,283.412 79.798 C 283.484 79.732,283.703 79.763,283.897 79.866 C 284.215 80.036,284.227 80.027,284.021 79.777 C 283.748 79.446,283.562 79.426,283.400 79.708 M290.856 79.722 C 290.717 79.890,290.731 79.944,290.912 79.944 C 291.044 79.944,291.191 79.844,291.238 79.722 C 291.284 79.600,291.259 79.500,291.182 79.500 C 291.104 79.500,290.958 79.600,290.856 79.722 M32.667 80.333 C 32.667 80.517,32.742 80.667,32.833 80.667 C 32.925 80.667,33.000 80.517,33.000 80.333 C 33.000 80.150,32.925 80.000,32.833 80.000 C 32.742 80.000,32.667 80.150,32.667 80.333 " stroke="none" fill="#55ff00" fill-rule="evenodd"></path><path id="path4" d="M187.513 6.529 C 187.163 6.970,187.154 7.010,187.447 6.828 C 187.809 6.602,188.252 5.994,188.043 6.009 C 187.974 6.014,187.735 6.248,187.513 6.529 M187.167 8.551 C 187.167 8.580,187.401 8.825,187.688 9.094 C 188.052 9.437,188.145 9.478,187.996 9.233 C 187.813 8.930,187.167 8.399,187.167 8.551 M29.234 20.476 C 29.587 20.873,29.667 20.909,29.667 20.673 C 29.667 20.584,29.498 20.423,29.292 20.315 C 28.919 20.119,28.918 20.120,29.234 20.476 M386.333 22.620 C 386.333 22.830,386.810 23.246,386.922 23.134 C 386.966 23.090,386.852 22.917,386.668 22.751 C 386.484 22.585,386.333 22.526,386.333 22.620 M202.333 23.787 C 202.333 23.997,202.810 24.412,202.922 24.301 C 202.966 24.256,202.852 24.084,202.668 23.918 C 202.484 23.751,202.333 23.692,202.333 23.787 M222.333 25.083 C 222.216 25.225,222.157 25.379,222.202 25.425 C 222.248 25.471,222.382 25.392,222.500 25.250 C 222.618 25.108,222.677 24.954,222.631 24.909 C 222.585 24.863,222.451 24.941,222.333 25.083 M353.801 26.125 C 353.663 26.285,353.496 26.529,353.430 26.667 C 353.363 26.804,353.428 26.767,353.575 26.583 C 353.721 26.400,353.966 26.156,354.119 26.042 C 354.272 25.927,354.319 25.833,354.224 25.833 C 354.129 25.833,353.939 25.965,353.801 26.125 M218.477 28.486 C 218.260 28.661,218.121 28.834,218.167 28.870 C 218.213 28.905,218.431 28.762,218.651 28.551 C 219.137 28.086,219.023 28.043,218.477 28.486 M187.081 49.917 C 187.081 60.917,187.101 65.441,187.125 59.971 C 187.149 54.501,187.149 45.501,187.125 39.971 C 187.101 34.441,187.081 38.917,187.081 49.917 M233.401 34.191 C 233.085 34.547,233.085 34.547,233.458 34.352 C 233.665 34.243,233.833 34.083,233.833 33.994 C 233.833 33.757,233.754 33.794,233.401 34.191 M266.703 34.344 C 266.861 34.436,267.064 34.639,267.156 34.797 C 267.248 34.954,267.325 34.995,267.328 34.887 C 267.335 34.633,266.867 34.165,266.613 34.172 C 266.505 34.175,266.546 34.252,266.703 34.344 M366.330 35.254 C 366.008 35.642,366.238 35.715,366.582 35.334 C 366.749 35.150,366.808 35.000,366.713 35.000 C 366.618 35.000,366.446 35.114,366.330 35.254 M364.025 37.601 C 363.901 37.741,363.833 37.888,363.873 37.929 C 363.913 37.969,364.083 37.852,364.249 37.668 C 364.415 37.484,364.484 37.336,364.401 37.340 C 364.318 37.343,364.149 37.461,364.025 37.601 M345.500 39.583 C 345.384 39.723,345.366 39.833,345.459 39.833 C 345.551 39.833,345.719 39.721,345.833 39.583 C 345.949 39.444,345.967 39.333,345.874 39.333 C 345.782 39.333,345.614 39.446,345.500 39.583 M227.714 41.434 C 227.511 41.654,227.412 41.833,227.494 41.833 C 227.690 41.833,228.167 41.352,228.167 41.155 C 228.167 40.953,228.149 40.964,227.714 41.434 M397.163 42.421 C 396.841 42.809,397.071 42.882,397.416 42.501 C 397.582 42.317,397.641 42.167,397.546 42.167 C 397.452 42.167,397.279 42.281,397.163 42.421 M39.333 43.083 C 39.218 43.223,39.200 43.333,39.293 43.333 C 39.384 43.333,39.553 43.221,39.667 43.083 C 39.782 42.944,39.800 42.833,39.707 42.833 C 39.616 42.833,39.447 42.946,39.333 43.083 M149.417 52.833 C 149.153 53.108,149.013 53.333,149.104 53.333 C 149.196 53.333,149.437 53.108,149.640 52.833 C 149.844 52.558,149.984 52.333,149.953 52.333 C 149.921 52.333,149.680 52.558,149.417 52.833 M320.833 54.750 C 320.716 54.892,320.657 55.046,320.702 55.091 C 320.748 55.137,320.882 55.059,321.000 54.917 C 321.118 54.775,321.177 54.621,321.131 54.575 C 321.085 54.529,320.951 54.608,320.833 54.750 M296.417 56.167 C 296.583 56.350,296.747 56.500,296.782 56.500 C 296.817 56.500,296.765 56.350,296.667 56.167 C 296.569 55.983,296.404 55.833,296.302 55.833 C 296.199 55.833,296.251 55.983,296.417 56.167 M336.740 56.570 C 336.563 56.700,336.461 56.850,336.515 56.904 C 336.569 56.958,336.749 56.852,336.916 56.668 C 337.270 56.276,337.197 56.236,336.740 56.570 M398.636 57.130 C 398.882 57.385,399.115 57.572,399.153 57.546 C 399.250 57.481,398.473 56.667,398.315 56.667 C 398.245 56.667,398.389 56.875,398.636 57.130 M147.982 60.208 C 147.786 60.581,147.787 60.582,148.142 60.266 C 148.540 59.913,148.576 59.833,148.339 59.833 C 148.251 59.833,148.090 60.002,147.982 60.208 M130.833 60.750 C 130.716 60.892,130.657 61.046,130.702 61.091 C 130.748 61.137,130.882 61.059,131.000 60.917 C 131.118 60.775,131.177 60.621,131.131 60.575 C 131.085 60.529,130.951 60.608,130.833 60.750 M300.083 62.937 C 300.358 63.205,300.613 63.405,300.649 63.382 C 300.762 63.312,300.293 62.823,299.930 62.633 C 299.694 62.510,299.743 62.607,300.083 62.937 M399.333 62.833 C 399.333 62.925,399.483 63.000,399.667 63.000 C 399.850 63.000,400.000 62.925,400.000 62.833 C 400.000 62.742,399.850 62.667,399.667 62.667 C 399.483 62.667,399.333 62.742,399.333 62.833 M346.667 64.827 C 346.667 64.916,346.835 65.077,347.042 65.185 C 347.415 65.381,347.415 65.380,347.099 65.024 C 346.746 64.627,346.667 64.591,346.667 64.827 M380.167 65.417 C 380.049 65.559,379.990 65.712,380.036 65.758 C 380.082 65.804,380.216 65.725,380.333 65.583 C 380.451 65.441,380.510 65.288,380.464 65.242 C 380.418 65.196,380.284 65.275,380.167 65.417 M145.567 66.191 C 145.252 66.547,145.252 66.547,145.625 66.352 C 145.831 66.243,146.000 66.083,146.000 65.994 C 146.000 65.757,145.920 65.794,145.567 66.191 M305.750 66.237 C 305.933 66.387,306.224 66.676,306.395 66.880 L 306.708 67.250 306.467 66.846 C 306.334 66.623,306.044 66.334,305.821 66.202 C 305.435 65.975,305.432 65.976,305.750 66.237 M115.917 66.833 C 116.083 67.017,116.247 67.167,116.282 67.167 C 116.317 67.167,116.265 67.017,116.167 66.833 C 116.069 66.650,115.904 66.500,115.802 66.500 C 115.699 66.500,115.751 66.650,115.917 66.833 M143.469 69.870 C 143.223 70.125,143.078 70.333,143.148 70.333 C 143.306 70.333,144.083 69.519,143.987 69.454 C 143.948 69.428,143.715 69.615,143.469 69.870 M27.584 73.334 C 27.751 73.518,27.921 73.634,27.963 73.592 C 28.054 73.502,27.578 73.000,27.403 73.000 C 27.336 73.000,27.418 73.150,27.584 73.334 M59.500 75.459 C 59.500 75.551,59.612 75.719,59.750 75.833 C 59.889 75.949,60.000 75.967,60.000 75.874 C 60.000 75.782,59.887 75.614,59.750 75.500 C 59.611 75.384,59.500 75.366,59.500 75.459 M103.333 75.494 C 103.333 75.583,103.502 75.743,103.708 75.852 C 104.081 76.047,104.082 76.047,103.766 75.691 C 103.413 75.294,103.333 75.257,103.333 75.494 M190.000 77.917 C 190.114 78.054,190.282 78.167,190.374 78.167 C 190.467 78.167,190.449 78.056,190.333 77.917 C 190.219 77.779,190.051 77.667,189.959 77.667 C 189.866 77.667,189.884 77.777,190.000 77.917 M11.667 80.333 C 11.667 80.517,11.742 80.667,11.833 80.667 C 11.925 80.667,12.000 80.517,12.000 80.333 C 12.000 80.150,11.925 80.000,11.833 80.000 C 11.742 80.000,11.667 80.150,11.667 80.333 " stroke="none" fill="#ffff00" fill-rule="evenodd"></path></g></svg>